<svg width="69" height="18" viewBox="0 0 69 18" fill="none" xmlns="http://www.w3.org/2000/svg">
<g clip-path="url(#clip0_162_72417)">
<path d="M6.87136 1.67718H8.37686C9.2937 1.54211 10.23 1.66087 11.0841 2.02054C12.1556 2.66521 12.9328 3.70306 13.2499 4.91269C13.4744 5.54659 13.4744 5.54659 14.0159 5.32208H14.4385V0.303742H0.268275V1.18855H0.849346C1.10185 1.18681 1.35155 1.24165 1.58008 1.34906C1.80861 1.45647 2.01017 1.61372 2.16996 1.80924C2.71142 2.68085 2.80386 3.65811 2.80386 8.74248C2.80386 14.1438 2.685 15.4644 2.16996 16.1379C2.04281 16.3111 1.87819 16.4533 1.68839 16.5539C1.4986 16.6545 1.28852 16.7109 1.07385 16.719C0.268275 16.8643 0.268275 16.8511 0.268275 17.2076C0.223726 17.3269 0.223726 17.4582 0.268275 17.5774H9.20885C9.26801 17.4608 9.29885 17.3318 9.29885 17.201C9.29885 17.0702 9.26801 16.9413 9.20885 16.8246C8.9923 16.7644 8.7716 16.7203 8.54854 16.6926C8.30723 16.6639 8.06871 16.6153 7.83541 16.5473C7.50131 16.3034 7.23665 15.9765 7.06757 15.599C6.8985 15.2215 6.83086 14.8064 6.87136 14.3947C6.73929 13.5231 6.67326 11.9252 6.67326 10.6045V9.56126H7.20151C7.85964 9.54113 8.5174 9.61223 9.15602 9.77256C9.46197 9.96162 9.7224 10.2159 9.91872 10.5172C10.115 10.8186 10.2424 11.1595 10.2918 11.5158L10.4106 11.9252H11.2162V6.07484H10.4766L10.3578 6.6427C10.3078 7.00701 10.173 7.35452 9.96428 7.65727C9.75556 7.96003 9.47872 8.2096 9.15602 8.38591C8.8435 8.47892 8.51425 8.50147 8.19197 8.45194H6.67326V7.02568C6.67326 5.54659 6.7525 2.42993 6.80532 1.94131L6.87136 1.67718ZM68.6762 12.1497C68.052 11.145 67.0783 10.4065 65.9425 10.0763C65.0718 9.80412 64.2669 9.35446 63.5786 8.75569C63.4237 8.60588 63.3079 8.42046 63.2411 8.21559C63.1744 8.01072 63.1587 7.79263 63.1956 7.58034C63.1967 7.16393 63.3629 6.76495 63.6578 6.47102C63.8577 6.26165 64.1108 6.11051 64.3899 6.03375C64.669 5.957 64.9637 5.9575 65.2426 6.03522C65.8199 6.19975 66.342 6.51739 66.7535 6.95446C67.165 7.39154 67.4506 7.93179 67.5801 8.51797C67.7914 9.11225 67.8178 9.11225 68.2008 8.95378L68.4385 8.86133V5.573L68.2668 5.49376C66.9667 5.03713 65.5875 4.84846 64.2125 4.9391C63.0284 4.96911 61.8981 5.44005 61.043 6.25972C60.6552 6.62275 60.3515 7.06615 60.153 7.55889C59.9545 8.05162 59.8662 8.58178 59.8941 9.11225C59.9015 9.92327 60.2235 10.6997 60.7921 11.2781C61.4205 11.8961 62.1916 12.3497 63.0372 12.5987C65.0841 13.4043 65.6784 13.9193 65.6784 14.8569C65.6872 15.2523 65.5612 15.639 65.3212 15.9534C65.0813 16.2677 64.7415 16.4912 64.3578 16.5869C63.8967 16.6882 63.419 16.6882 62.9579 16.5869C62.3542 16.3526 61.8151 15.9775 61.3856 15.4929C60.956 15.0082 60.6484 14.428 60.4884 13.8004L60.3167 13.3778H60.079C59.9654 13.3863 59.8539 13.413 59.7488 13.4571H59.6168V17.2076H59.8413C60.7335 17.5044 61.654 17.708 62.5881 17.8151H63.9088C64.4815 17.8571 65.0572 17.8036 65.6124 17.6566C66.3171 17.5266 66.9756 17.2144 67.5224 16.751C68.0691 16.2877 68.4851 15.6893 68.729 15.0154C68.8866 14.639 68.9674 14.2349 68.9667 13.8269C69.0188 13.252 68.9186 12.6735 68.6762 12.1497ZM56.236 5.32208C55.4446 4.98983 54.592 4.82866 53.7339 4.84914C52.8759 4.86962 52.0319 5.0713 51.2573 5.44094C50.5292 5.79709 49.8838 6.30195 49.3629 6.92295C48.842 7.54394 48.4571 8.26726 48.2331 9.04622C47.9474 9.89597 47.8264 10.7924 47.8765 11.6875C47.867 12.1744 47.9068 12.6612 47.9953 13.1401C48.2086 14.3179 48.7772 15.4021 49.6247 16.2473C50.4722 17.0924 51.558 17.658 52.7364 17.8679C53.5037 17.9646 54.2801 17.9646 55.0474 17.8679C55.8437 17.7276 56.6057 17.4362 57.2925 17.0095C57.8605 16.6911 58.3413 16.2375 58.6923 15.6889C58.6698 15.6028 58.6301 15.5222 58.5757 15.4519C58.5212 15.3815 58.4531 15.3229 58.3754 15.2795C58.2247 15.3341 58.0824 15.4097 57.9528 15.504C57.2959 15.9369 56.5203 16.1539 55.7341 16.1247C55.2124 16.16 54.6893 16.0788 54.2028 15.8869C53.7162 15.695 53.2785 15.3973 52.9212 15.0154C52.6449 14.7587 52.4168 14.4546 52.2477 14.1174C51.8373 13.2964 51.6162 12.3939 51.6006 11.4762V10.9611H58.9168V10.697C58.933 10.4331 58.933 10.1685 58.9168 9.90462C58.9142 8.97214 58.6648 8.05697 58.1939 7.25209C57.7231 6.44722 57.0475 5.78133 56.236 5.32208ZM52.5515 9.89142H51.627V9.11225C51.9308 7.11812 52.6835 5.92957 53.608 5.92957C54.5324 5.92957 54.9286 7.10492 55.1003 9.25752V9.865H54.3079L52.5515 9.89142ZM33.561 4.88628C33.1047 4.86858 32.6511 4.96385 32.2404 5.16361C31.3478 5.59707 30.6269 6.318 30.1934 7.21056L30.0218 7.52751V4.88628H29.9557C29.7973 4.88628 24.911 5.86354 24.7525 5.92957C24.594 5.9956 24.6468 6.0088 24.6468 6.24651C24.6468 6.48423 24.6469 6.52384 24.7525 6.53705L25.2675 6.6427C25.4118 6.64624 25.5533 6.68256 25.6815 6.74891C25.8096 6.81527 25.921 6.90991 26.0071 7.02568C26.3372 7.46148 26.4033 8.22744 26.4033 11.4894C26.4685 12.9578 26.4066 14.4292 26.2184 15.887C26.1741 16.1068 26.0626 16.3075 25.8994 16.4612C25.7362 16.615 25.5292 16.7143 25.3072 16.7454L24.8582 16.8379H24.6865V17.2076C24.6386 17.3308 24.6386 17.4674 24.6865 17.5906H32.0687V17.2076C32.0943 17.0813 32.0943 16.951 32.0687 16.8246C31.6242 16.8073 31.1822 16.7499 30.7481 16.653C30.5117 16.5293 30.3183 16.3369 30.1933 16.1012C30.0684 15.8655 30.0178 15.5974 30.0482 15.3324C29.9425 14.5664 29.8897 12.3213 29.9161 10.6045C29.9425 8.88775 29.9161 8.7821 30.0614 8.66324C30.5033 8.32442 31.0501 8.15149 31.6065 8.17461C32.1309 8.18605 32.6458 8.31704 33.112 8.55759C33.2736 8.64733 33.447 8.71401 33.627 8.75569C33.627 8.75569 34.9477 5.55979 34.9477 5.41453C34.7787 5.21814 34.5634 5.067 34.3212 4.97476C34.0791 4.88253 33.8178 4.85212 33.561 4.88628ZM24.6601 10.4329C24.614 9.48916 24.343 8.57013 23.8698 7.75235C23.3966 6.93456 22.7348 6.24169 21.9396 5.73147C20.9946 5.22165 19.9431 4.94054 18.8698 4.91072C17.7964 4.88091 16.731 5.10322 15.7591 5.55979C14.385 6.28439 13.3475 7.51613 12.867 8.9934C12.3706 10.6474 12.3706 12.4106 12.867 14.0646C13.1271 14.9685 13.6135 15.7912 14.28 16.4549C15.1101 17.2649 16.1805 17.7839 17.3306 17.934C18.0689 17.9957 18.811 17.9957 19.5493 17.934C19.8209 17.8926 20.0899 17.8353 20.3548 17.7623C21.4298 17.4616 22.3969 16.861 23.1429 16.0307C23.889 15.2005 24.3831 14.1749 24.5676 13.0741C24.6995 12.2001 24.7305 11.3139 24.6601 10.4329ZM19.1663 17.0359C17.8457 17.4321 16.8552 16.1511 16.5251 13.4571C16.4038 12.0466 16.4038 10.6284 16.5251 9.2179C16.7892 7.05209 17.4627 5.95598 18.506 5.95598C18.7165 5.94293 18.927 5.98049 19.12 6.0655C19.313 6.15051 19.4828 6.2805 19.6153 6.44461C20.5001 7.32942 20.9359 9.08584 20.9359 11.7271C21.0458 13.2219 20.8109 14.7219 20.2492 16.1115C20.0012 16.5168 19.6175 16.821 19.1663 16.9699V17.0359ZM42.9374 5.1504C42.5647 5.10245 42.1875 5.10245 41.8149 5.1504C41.0995 5.14979 40.3925 5.30292 39.7415 5.59941L39.3321 5.77109V2.90536C39.4036 1.93823 39.4036 0.967131 39.3321 0C39.1736 0 34.1289 0.96405 34.0496 1.00367C34.0107 1.10117 34.0107 1.20991 34.0496 1.30741C34.0496 1.58474 34.0496 1.57153 34.6439 1.70359C34.8108 1.74101 34.971 1.80334 35.1193 1.88848C35.3771 2.13089 35.5487 2.45085 35.608 2.79971C35.7583 3.80473 35.807 4.82234 35.7532 5.83712V17.4321L36.1098 17.5114C36.638 17.6302 38.1303 17.8811 38.619 17.934C39.5947 18.0116 40.575 18.0116 41.5507 17.934C42.6337 17.8233 43.666 17.4193 44.5364 16.7654C45.4067 16.1115 46.0821 15.2324 46.4898 14.223C46.7329 13.5752 46.9013 12.9017 46.9917 12.2157C47.0703 11.2865 47.0393 10.3512 46.8992 9.4292C46.7576 8.39571 46.3014 7.43081 45.5927 6.66538C44.8839 5.89995 43.9569 5.37104 42.9374 5.1504ZM39.4774 16.8114C39.4774 16.6398 39.3453 10.8555 39.3717 8.54439V6.73514L39.7547 6.6427C40.0131 6.60568 40.2755 6.60568 40.5339 6.6427C40.8196 6.61364 41.1071 6.67855 41.3526 6.82759C41.8458 7.16796 42.2554 7.61577 42.5505 8.13732C42.8455 8.65886 43.0185 9.24055 43.0562 9.83859C43.1524 10.8002 43.1524 11.7691 43.0562 12.7307C42.9772 14.1284 42.4387 15.4608 41.5243 16.5209C41.2648 16.7674 40.9389 16.9327 40.5867 16.9963C40.3202 17.0427 40.0476 17.0427 39.7811 16.9963C39.5302 16.9963 39.5302 16.9171 39.5302 16.8114H39.4774Z" fill="#000E18" fill-opacity="0.59"/>
</g>
<defs>
<clipPath id="clip0_162_72417">
<rect width="68.7249" height="18" fill="white" transform="translate(0.255127)"/>
</clipPath>
</defs>
</svg>
