<svg width="69" height="18" viewBox="0 0 69 18" fill="none" xmlns="http://www.w3.org/2000/svg">
<g clip-path="url(#clip0_162_71687)">
<path d="M6.75392 1.67718H8.25943C9.17627 1.54211 10.1126 1.66087 10.9667 2.02054C12.0382 2.66521 12.8154 3.70306 13.1325 4.91269C13.357 5.54659 13.357 5.54659 13.8985 5.32208H14.3211V0.303742H0.150843V1.18855H0.731914C0.984423 1.18681 1.23412 1.24165 1.46265 1.34906C1.69118 1.45647 1.89274 1.61372 2.05253 1.80924C2.59398 2.68085 2.68643 3.65811 2.68643 8.74248C2.68643 14.1438 2.56757 15.4644 2.05253 16.1379C1.92538 16.3111 1.76076 16.4533 1.57096 16.5539C1.38116 16.6545 1.17109 16.7109 0.956419 16.719C0.150843 16.8643 0.150843 16.8511 0.150843 17.2076C0.106294 17.3269 0.106294 17.4582 0.150843 17.5774H9.09141C9.15058 17.4608 9.18142 17.3318 9.18142 17.201C9.18142 17.0702 9.15058 16.9413 9.09141 16.8246C8.87487 16.7644 8.65417 16.7203 8.43111 16.6926C8.1898 16.6639 7.95128 16.6153 7.71797 16.5473C7.38388 16.3034 7.11921 15.9765 6.95014 15.599C6.78106 15.2215 6.71343 14.8064 6.75392 14.3947C6.62186 13.5231 6.55583 11.9252 6.55583 10.6045V9.56126H7.08408C7.74221 9.54113 8.39996 9.61223 9.03859 9.77256C9.34453 9.96162 9.60497 10.2159 9.80129 10.5172C9.99761 10.8186 10.125 11.1595 10.1743 11.5158L10.2932 11.9252H11.0988V6.07484H10.3592L10.2404 6.6427C10.1903 7.00701 10.0556 7.35452 9.84685 7.65727C9.63813 7.96003 9.36129 8.2096 9.03859 8.38591C8.72607 8.47892 8.39682 8.50147 8.07454 8.45194H6.55583V7.02568C6.55583 5.54659 6.63507 2.42993 6.68789 1.94131L6.75392 1.67718ZM68.5588 12.1497C67.9345 11.145 66.9609 10.4065 65.8251 10.0763C64.9543 9.80412 64.1495 9.35446 63.4612 8.75569C63.3063 8.60588 63.1904 8.42046 63.1237 8.21559C63.0569 8.01072 63.0413 7.79263 63.0782 7.58034C63.0792 7.16393 63.2455 6.76495 63.5404 6.47102C63.7403 6.26165 63.9933 6.11051 64.2725 6.03375C64.5516 5.957 64.8463 5.9575 65.1252 6.03522C65.7025 6.19975 66.2245 6.51739 66.6361 6.95446C67.0476 7.39154 67.3332 7.93179 67.4626 8.51797C67.6739 9.11225 67.7004 9.11225 68.0833 8.95378L68.321 8.86133V5.573L68.1494 5.49376C66.8492 5.03713 65.4701 4.84846 64.0951 4.9391C62.911 4.96911 61.7807 5.44005 60.9256 6.25972C60.5378 6.62275 60.234 7.06615 60.0356 7.55889C59.8371 8.05162 59.7487 8.58178 59.7767 9.11225C59.7841 9.92327 60.106 10.6997 60.6747 11.2781C61.3031 11.8961 62.0742 12.3497 62.9197 12.5987C64.9667 13.4043 65.561 13.9193 65.561 14.8569C65.5697 15.2523 65.4438 15.639 65.2038 15.9534C64.9638 16.2677 64.6241 16.4912 64.2403 16.5869C63.7792 16.6882 63.3016 16.6882 62.8405 16.5869C62.2368 16.3526 61.6977 15.9775 61.2682 15.4929C60.8386 15.0082 60.531 14.428 60.3709 13.8004L60.1993 13.3778H59.9615C59.8479 13.3863 59.7365 13.413 59.6314 13.4571H59.4993V17.2076H59.7238C60.616 17.5044 61.5366 17.708 62.4707 17.8151H63.7913C64.3641 17.8571 64.9398 17.8036 65.4949 17.6566C66.1997 17.5266 66.8582 17.2144 67.4049 16.751C67.9517 16.2877 68.3677 15.6893 68.6116 15.0154C68.7692 14.639 68.85 14.2349 68.8493 13.8269C68.9013 13.252 68.8011 12.6735 68.5588 12.1497ZM56.1186 5.32208C55.3272 4.98983 54.4745 4.82866 53.6165 4.84914C52.7584 4.86962 51.9144 5.0713 51.1398 5.44094C50.4117 5.79709 49.7664 6.30195 49.2455 6.92295C48.7246 7.54394 48.3397 8.26726 48.1156 9.04622C47.83 9.89597 47.709 10.7924 47.7591 11.6875C47.7496 12.1744 47.7894 12.6612 47.8779 13.1401C48.0912 14.3179 48.6597 15.4021 49.5073 16.2473C50.3548 17.0924 51.4406 17.658 52.6189 17.8679C53.3862 17.9646 54.1627 17.9646 54.93 17.8679C55.7262 17.7276 56.4883 17.4362 57.175 17.0095C57.7431 16.6911 58.2239 16.2375 58.5749 15.6889C58.5524 15.6028 58.5127 15.5222 58.4582 15.4519C58.4038 15.3815 58.3356 15.3229 58.2579 15.2795C58.1072 15.3341 57.965 15.4097 57.8354 15.504C57.1785 15.9369 56.4029 16.1539 55.6167 16.1247C55.0949 16.16 54.5718 16.0788 54.0853 15.8869C53.5988 15.695 53.1611 15.3973 52.8038 15.0154C52.5274 14.7587 52.2993 14.4546 52.1303 14.1174C51.7199 13.2964 51.4988 12.3939 51.4832 11.4762V10.9611H58.7994V10.697C58.8156 10.4331 58.8156 10.1685 58.7994 9.90462C58.7968 8.97214 58.5474 8.05697 58.0765 7.25209C57.6056 6.44722 56.9301 5.78133 56.1186 5.32208ZM52.434 9.89142H51.5096V9.11225C51.8133 7.11812 52.5661 5.92957 53.4905 5.92957C54.415 5.92957 54.8111 7.10492 54.9828 9.25752V9.865H54.1905L52.434 9.89142ZM33.4436 4.88628C32.9873 4.86858 32.5336 4.96385 32.123 5.16361C31.2304 5.59707 30.5095 6.318 30.076 7.21056L29.9043 7.52751V4.88628H29.8383C29.6798 4.88628 24.7935 5.86354 24.6351 5.92957C24.4766 5.9956 24.5294 6.0088 24.5294 6.24651C24.5294 6.48423 24.5294 6.52384 24.6351 6.53705L25.1501 6.6427C25.2944 6.64624 25.4359 6.68256 25.564 6.74891C25.6922 6.81527 25.8035 6.90991 25.8897 7.02568C26.2198 7.46148 26.2858 8.22744 26.2858 11.4894C26.3511 12.9578 26.2892 14.4292 26.101 15.887C26.0566 16.1068 25.9452 16.3075 25.7819 16.4612C25.6187 16.615 25.4118 16.7143 25.1897 16.7454L24.7407 16.8379H24.569V17.2076C24.5211 17.3308 24.5211 17.4674 24.569 17.5906H31.9513V17.2076C31.9769 17.0813 31.9769 16.951 31.9513 16.8246C31.5068 16.8073 31.0648 16.7499 30.6307 16.653C30.3943 16.5293 30.2008 16.3369 30.0759 16.1012C29.951 15.8655 29.9003 15.5974 29.9307 15.3324C29.8251 14.5664 29.7723 12.3213 29.7987 10.6045C29.8251 8.88775 29.7987 8.7821 29.9439 8.66324C30.3859 8.32442 30.9327 8.15149 31.4891 8.17461C32.0135 8.18605 32.5284 8.31704 32.9946 8.55759C33.1562 8.64733 33.3295 8.71401 33.5096 8.75569C33.5096 8.75569 34.8302 5.55979 34.8302 5.41453C34.6612 5.21814 34.4459 5.067 34.2038 4.97476C33.9617 4.88253 33.7004 4.85212 33.4436 4.88628ZM24.5426 10.4329C24.4965 9.48916 24.2256 8.57013 23.7524 7.75235C23.2792 6.93456 22.6174 6.24169 21.8222 5.73147C20.8771 5.22165 19.8257 4.94054 18.7523 4.91072C17.679 4.88091 16.6135 5.10322 15.6417 5.55979C14.2676 6.28439 13.2301 7.51613 12.7495 8.9934C12.2532 10.6474 12.2532 12.4106 12.7495 14.0646C13.0097 14.9685 13.496 15.7912 14.1626 16.4549C14.9927 17.2649 16.0631 17.7839 17.2132 17.934C17.9515 17.9957 18.6936 17.9957 19.4318 17.934C19.7035 17.8926 19.9725 17.8353 20.2374 17.7623C21.3123 17.4616 22.2794 16.861 23.0255 16.0307C23.7715 15.2005 24.2657 14.1749 24.4502 13.0741C24.582 12.2001 24.613 11.3139 24.5426 10.4329ZM19.0489 17.0359C17.7282 17.4321 16.7378 16.1511 16.4076 13.4571C16.2864 12.0466 16.2864 10.6284 16.4076 9.2179C16.6718 7.05209 17.3453 5.95598 18.3886 5.95598C18.599 5.94293 18.8096 5.98049 19.0026 6.0655C19.1956 6.15051 19.3654 6.2805 19.4979 6.44461C20.3827 7.32942 20.8185 9.08584 20.8185 11.7271C20.9284 13.2219 20.6934 14.7219 20.1318 16.1115C19.8838 16.5168 19.5 16.821 19.0489 16.9699V17.0359ZM42.82 5.1504C42.4473 5.10245 42.0701 5.10245 41.6974 5.1504C40.9821 5.14979 40.275 5.30292 39.6241 5.59941L39.2147 5.77109V2.90536C39.2862 1.93823 39.2862 0.967131 39.2147 0C39.0562 0 34.0114 0.96405 33.9322 1.00367C33.8933 1.10117 33.8933 1.20991 33.9322 1.30741C33.9322 1.58474 33.9322 1.57153 34.5265 1.70359C34.6933 1.74101 34.8536 1.80334 35.0019 1.88848C35.2597 2.13089 35.4313 2.45085 35.4905 2.79971C35.6409 3.80473 35.6896 4.82234 35.6358 5.83712V17.4321L35.9924 17.5114C36.5206 17.6302 38.0129 17.8811 38.5015 17.934C39.4773 18.0116 40.4576 18.0116 41.4333 17.934C42.5163 17.8233 43.5486 17.4193 44.4189 16.7654C45.2893 16.1115 45.9647 15.2324 46.3724 14.223C46.6155 13.5752 46.7838 12.9017 46.8742 12.2157C46.9529 11.2865 46.9218 10.3512 46.7818 9.4292C46.6401 8.39571 46.184 7.43081 45.4753 6.66538C44.7665 5.89995 43.8395 5.37104 42.82 5.1504ZM39.3599 16.8114C39.3599 16.6398 39.2279 10.8555 39.2543 8.54439V6.73514L39.6373 6.6427C39.8957 6.60568 40.158 6.60568 40.4164 6.6427C40.7022 6.61364 40.9897 6.67855 41.2352 6.82759C41.7284 7.16796 42.1379 7.61577 42.433 8.13732C42.7281 8.65886 42.901 9.24055 42.9388 9.83859C43.035 10.8002 43.035 11.7691 42.9388 12.7307C42.8598 14.1284 42.3212 15.4608 41.4069 16.5209C41.1474 16.7674 40.8215 16.9327 40.4693 16.9963C40.2027 17.0427 39.9302 17.0427 39.6637 16.9963C39.4128 16.9963 39.4128 16.9171 39.4128 16.8114H39.3599Z" fill="#011E32" fill-opacity="0.24"/>
</g>
<defs>
<clipPath id="clip0_162_71687">
<rect width="68.7249" height="18" fill="white" transform="translate(0.137695)"/>
</clipPath>
</defs>
</svg>
