<svg width="187" height="36" viewBox="0 0 187 36" fill="none" xmlns="http://www.w3.org/2000/svg">
<path d="M37.7257 26.4792C43.1904 26.4792 45.789 22.7512 45.789 18.2077V8.18867H41.0122V18.363C41.0122 20.3047 39.8657 21.8969 37.7257 21.8969C35.6239 21.8969 34.4775 20.3047 34.4775 18.363V8.18867H29.7007V18.2077C29.7007 22.7512 32.2993 26.4792 37.7257 26.4792Z" fill="#081335"/>
<path d="M53.846 26.052V15.9165C53.846 13.6642 55.2599 12.2273 57.1706 12.2273C59.3106 12.2273 60.4189 13.7807 60.4189 15.7223V26.052H65.1957V14.7127C65.1957 10.7905 62.2532 7.7615 58.2406 7.7615C55.9096 7.7615 54.3428 8.77117 53.6167 9.6255V8.18867H49.0692V26.052H53.846Z" fill="#081335"/>
<path d="M76.1238 26.3239V21.7415C74.4424 21.7415 73.6399 20.8872 73.6399 19.4892V3.99477H68.8631V19.6057C68.8631 24.1104 71.1177 26.3239 75.2067 26.3239H76.1238Z" fill="#081335"/>
<path d="M87.0379 26.4792C92.6555 26.4792 96.6298 22.2852 96.6298 17.1204C96.6298 11.9943 92.6555 7.7615 87.0379 7.7615C81.4586 7.7615 77.4461 11.9943 77.4461 17.1204C77.4461 22.2852 81.4586 26.4792 87.0379 26.4792ZM87.0379 21.8969C84.3247 21.858 82.414 19.7999 82.414 17.1204C82.414 14.4797 84.3247 12.3827 87.0379 12.3438C89.7512 12.3827 91.6619 14.4797 91.6619 17.1204C91.6619 19.7999 89.7512 21.858 87.0379 21.8969Z" fill="#081335"/>
<path d="M108.254 26.4792C111.847 26.4792 114.713 24.7705 116.279 22.1687L112.305 19.5669C111.541 20.926 110.051 21.858 108.254 21.8969C105.541 21.858 103.63 19.7999 103.63 17.1204C103.63 14.4797 105.541 12.3827 108.254 12.3438C110.203 12.3827 111.732 13.47 112.458 14.9457L116.432 12.305C114.866 9.58667 111.961 7.7615 108.254 7.7615C102.675 7.7615 98.6626 11.9943 98.6626 17.1204C98.6626 22.2464 102.675 26.4792 108.254 26.4792Z" fill="#081335"/>
<path d="M132.341 9.12067C130.851 8.2275 129.131 7.7615 127.411 7.7615C122.138 7.7615 118.125 12.1108 118.125 17.1204C118.125 22.1299 122.138 26.4792 127.411 26.4792C129.131 26.4792 130.851 26.0132 132.341 25.12V26.052H137.118V8.18867H132.341V9.12067ZM127.717 21.8969C125.004 21.858 123.093 19.7999 123.093 17.1204C123.093 14.4797 125.004 12.3827 127.717 12.3438C130.43 12.3827 132.341 14.4797 132.341 17.1204C132.341 19.7999 130.43 21.858 127.717 21.8969Z" fill="#081335"/>
<path d="M152.358 26.285V21.858H149.951C148.499 21.858 147.352 21.1979 147.352 19.2562V12.3438H152.358V8.18867H147.352V3.91699H143.684V3.99466C143.684 6.8295 141.773 8.73234 139.709 8.73234H139.595V12.3438H142.576V19.9552C142.576 24.1492 144.907 26.285 149.072 26.285H152.358Z" fill="#081335"/>
<path d="M163.619 26.4792C169.237 26.4792 173.211 22.2852 173.211 17.1204C173.211 11.9943 169.237 7.7615 163.619 7.7615C158.04 7.7615 154.027 11.9943 154.027 17.1204C154.027 22.2852 158.04 26.4792 163.619 26.4792ZM163.619 21.8969C160.906 21.858 158.995 19.7999 158.995 17.1204C158.995 14.4797 160.906 12.3827 163.619 12.3438C166.332 12.3827 168.243 14.4797 168.243 17.1204C168.243 19.7999 166.332 21.858 163.619 21.8969Z" fill="#081335"/>
<path d="M180.976 26.052V16.8874C180.976 14.2078 182.428 12.538 185.065 12.538H186.937V7.91684H185.6C183.613 7.91684 181.702 8.6935 180.747 10.2857V8.18867H176.276V26.052H180.976Z" fill="#081335"/>
<path fill-rule="evenodd" clip-rule="evenodd" d="M1 13.5701C1 21.794 9.90146 27.9619 11.0298 27.9619V22.0733C11.0288 22.0733 11.0278 22.0733 11.0268 22.0733C10.2404 22.0733 9.60295 21.42 9.60295 20.614C9.60295 19.808 10.2404 19.1547 11.0268 19.1547C11.0278 19.1547 11.0288 19.1547 11.0298 19.1547V17.6947H9.79424C9.79424 16.7186 10.2329 15.9366 10.6721 15.3657C10.7847 15.2192 10.9059 15.0764 11.0298 14.9391L11.0298 11.3628C10.484 11.3628 10.003 11.6781 9.75711 12.1555C9.64986 12.3638 9.5883 12.6021 9.5883 12.8595H7.11714C7.11714 12.1808 7.28108 11.5375 7.5718 10.9731C8.22549 9.704 9.52549 8.83007 11.0298 8.83007L11.0298 3.29028C5.4905 3.29028 1 7.89272 1 13.5701ZM11.0298 11.3628V14.939C11.3095 14.6292 11.6035 14.3473 11.8472 14.1135L11.8472 14.1135L11.8472 14.1135L11.8476 14.1132C11.9061 14.057 11.9618 14.0036 12.0137 13.9533C12.2958 13.6796 12.4713 13.2926 12.4713 12.8595C12.4713 12.0246 11.8178 11.3628 11.0298 11.3628ZM11.0298 17.6947H12.2654C12.2654 17.5264 12.3379 17.291 12.6126 16.9338C12.8542 16.6197 13.1537 16.3313 13.5111 15.9871L13.5111 15.9871C13.5763 15.9243 13.6434 15.8597 13.7125 15.7927C14.4692 15.0585 14.9425 14.0141 14.9425 12.8595C14.9425 10.6424 13.1988 8.83008 11.0298 8.83007V3.29028C16.5691 3.29028 21.0596 7.89272 21.0596 13.5701C21.0596 21.794 12.1582 27.9619 11.0298 27.9619V22.0733C11.8148 22.0716 12.4506 21.4189 12.4506 20.614C12.4506 19.8091 11.8148 19.1564 11.0298 19.1547V17.6947Z" fill="#5373E7"/>
<path fill-rule="evenodd" clip-rule="evenodd" d="M16.9973 28.0481C17.8832 28.5509 18.4052 29.1685 18.4052 29.836C18.4052 31.5253 15.0615 32.8948 10.9367 32.8948C6.81201 32.8948 3.46825 31.5253 3.46825 29.836C3.46825 29.1685 3.99025 28.5509 4.87618 28.0481C4.81605 27.9957 4.75581 27.9428 4.69547 27.8894C2.42494 28.714 0.971924 29.9787 0.971924 31.3966C0.971924 33.8812 5.43335 35.8953 10.9368 35.8953C16.4402 35.8953 20.9017 33.8812 20.9017 31.3966C20.9017 29.9787 19.4486 28.714 17.178 27.8894C17.1177 27.9428 17.0574 27.9957 16.9973 28.0481Z" fill="#2EC8EE"/>
<path fill-rule="evenodd" clip-rule="evenodd" d="M8.68286 28.2585C9.77809 28.9765 10.6145 29.3655 10.9369 29.3655C11.2593 29.3655 12.0957 28.9765 13.1909 28.2585C14.2164 28.5804 14.8875 29.1157 14.8875 29.7218C14.8875 30.7057 13.1188 31.5032 10.9369 31.5032C8.75507 31.5032 6.98633 30.7057 6.98633 29.7218C6.98633 29.1157 7.65746 28.5804 8.68286 28.2585Z" fill="#2EC8EE"/>
<path fill-rule="evenodd" clip-rule="evenodd" d="M9.75716 12.1555C10.0031 11.6781 10.4841 11.3628 11.0299 11.3628C11.8179 11.3628 12.4714 12.0246 12.4714 12.8595C12.4714 13.2926 12.2959 13.6796 12.0137 13.9533C11.9618 14.0036 11.9062 14.057 11.8476 14.1132L11.8473 14.1135C11.4955 14.4508 11.0391 14.8886 10.6721 15.3657C10.233 15.9366 9.79428 16.7186 9.79428 17.6947H12.2654C12.2654 17.5264 12.3379 17.291 12.6127 16.9338C12.8542 16.6198 13.1537 16.3313 13.5111 15.9871L13.5112 15.9871C13.5764 15.9243 13.6435 15.8597 13.7125 15.7927C14.4693 15.0585 14.9425 14.0141 14.9425 12.8595C14.9425 10.6424 13.1989 8.83008 11.0299 8.83008C9.52554 8.83008 8.22554 9.70401 7.57184 10.9731C7.28112 11.5375 7.11719 12.1808 7.11719 12.8595H9.58835C9.58835 12.6021 9.6499 12.3638 9.75716 12.1555ZM11.0268 22.0733C11.8132 22.0733 12.4507 21.42 12.4507 20.614C12.4507 19.8081 11.8132 19.1547 11.0268 19.1547C10.2405 19.1547 9.60299 19.8081 9.60299 20.614C9.60299 21.42 10.2405 22.0733 11.0268 22.0733Z" fill="white"/>
</svg>
