<svg width="159" height="20" viewBox="0 0 159 20" fill="none" xmlns="http://www.w3.org/2000/svg">
<g clip-path="url(#clip0_162_71689)">
<mask id="mask0_162_71689" style="mask-type:luminance" maskUnits="userSpaceOnUse" x="0" y="0" width="159" height="20">
<path d="M0.718506 19.3809H158.282V0.618755H0.718506V19.3809Z" fill="white"/>
</mask>
<g mask="url(#mask0_162_71689)">
<mask id="mask1_162_71689" style="mask-type:luminance" maskUnits="userSpaceOnUse" x="-222" y="-59" width="603" height="1278">
<path d="M-221.04 1218.18H380.112V-58.808H-221.04V1218.18Z" fill="white"/>
</mask>
<g mask="url(#mask1_162_71689)">
<mask id="mask2_162_71689" style="mask-type:luminance" maskUnits="userSpaceOnUse" x="0" y="0" width="159" height="20">
<path d="M0.718506 0.618755H158.282V19.3809H0.718506V0.618755Z" fill="white"/>
</mask>
<g mask="url(#mask2_162_71689)">
<path d="M141.782 13.9362C141.167 14.4412 139.766 15.6586 139.188 16.2012C138.649 15.7331 137.535 14.8793 136.843 14.3935V14.3105C137.043 14.2444 137.175 14.0646 137.175 13.6242V8.43023C136.617 8.0375 135.717 7.45343 135.12 7.0799L134.518 7.68245V13.874L135.452 14.5595C135.452 14.5595 134.141 15.6586 133.564 16.2012C133.045 15.7147 132.285 15.1475 131.592 14.6425V14.5803C131.792 14.5149 131.924 14.3143 131.924 13.874V8.43023C131.366 8.0375 130.487 7.49489 129.89 7.12137L129.164 7.68245V13.874L130.098 14.5595C130.098 14.5595 128.824 15.5863 128.209 16.1804C127.632 15.6755 127.007 15.2151 126.238 14.6425V14.6011C126.454 14.5157 126.59 14.2552 126.59 13.957V7.70319L125.885 7.10064L125.117 7.80695L124.764 7.4534C125.341 6.98611 126.572 5.91399 127.4 5.14696L129.164 6.68483V7.12137L131.551 5.14696C132.301 5.67112 134.518 7.03839 134.518 7.03839L136.801 5.14696C137.533 5.70801 139.199 6.72176 140.122 7.24592V7.3289C139.814 7.40883 139.79 7.78772 139.79 7.9937V13.6242L140.703 14.2682L141.429 13.6242L141.782 13.9362ZM124.806 3.11105C124.19 3.95263 123.689 4.33689 122.689 4.33689C122.015 4.33689 121.65 4.14168 121.111 3.50608L120.364 4.19166L120.032 3.79659L122.626 1.53167C123.3 2.85974 124.11 3.04647 124.764 3.02802L124.806 3.11105Z" fill="#011E32" fill-opacity="0.24"/>
<path d="M125.636 13.8952C124.963 14.4563 123.635 15.6076 123.021 16.2017C122.444 15.6967 121.465 14.9658 120.697 14.394V14.331C120.913 14.2457 121.029 13.9859 121.029 13.6877V7.7037L120.344 7.12188L119.535 7.82819L119.202 7.49542C119.779 7.02813 121.031 5.91449 121.859 5.14747L123.955 6.95512V7.0389C123.705 7.11268 123.623 7.26945 123.623 7.82819V13.6247L124.536 14.2273L125.283 13.5624L125.636 13.8952ZM83.4854 13.8952C82.8114 14.4563 81.4632 15.6076 80.849 16.2017C80.2716 15.6967 79.2935 14.9658 78.525 14.394V14.331C78.7407 14.2457 78.8567 13.9859 78.8567 13.6877V3.98389L78.1511 3.38134L77.3833 4.04689L77.0509 3.71411C77.6283 3.24683 78.7354 2.21617 79.5622 1.44915L81.7833 3.25679V3.33982C81.5331 3.41437 81.4302 3.57117 81.4302 4.12991V13.6247L82.3853 14.248L83.153 13.5624L83.4854 13.8952ZM59.6382 13.9367C59.0233 14.4417 57.6006 15.6591 57.024 16.2017C56.4851 15.7336 55.3918 14.8798 54.6993 14.394V14.311C54.8997 14.2449 55.0525 14.0651 55.0525 13.6247V8.43074C54.4943 8.03801 53.5937 7.47467 52.9972 7.10115C52.8759 7.18876 52.396 7.53154 52.2709 7.64145V13.8745L53.226 14.56C53.226 14.56 51.9515 15.5868 51.3373 16.1809C50.7599 15.676 50.1143 15.2156 49.345 14.643V14.6016C49.5607 14.5162 49.6974 14.2557 49.6974 13.9575V7.7037L48.9711 7.10115L48.2448 7.7037L47.9338 7.37092C48.5104 6.90364 49.7004 5.91449 50.5281 5.14747L52.2709 6.68534V7.12188L54.6578 5.14747C55.3887 5.70852 57.0548 6.72227 57.9784 7.24642V7.32941C57.6705 7.40934 57.626 7.78823 57.626 7.9942V13.6247L58.5388 14.248L59.2859 13.6039L59.6382 13.9367ZM155.314 14.6638V11.651C154.948 11.4827 154.534 11.2491 154.173 11.0692L151.267 14.0613L151.371 14.082C151.822 13.843 152.004 13.5417 152.927 13.5417C153.87 13.5417 154.821 14.2057 155.273 14.6845L155.314 14.6638ZM158.282 5.418C158.282 6.42788 157.102 7.76594 155.542 7.76594C154.515 7.76594 153.906 7.2564 153.425 6.60236L153.384 6.62309V9.13705L154.795 9.80185L155.439 9.15783C156.104 9.56748 157.484 10.2853 158.219 10.5912V10.6534C158.075 10.7126 157.908 10.874 157.908 11.173V12.9391C157.908 13.1928 158.085 13.3611 158.219 13.4172V13.5002C156.719 14.1365 154.563 15.2848 153.508 16.2017C152.969 15.6967 152.244 15.2248 151.308 15.2248C150.431 15.2248 150.043 15.5376 150.043 15.8274C150.043 16.008 150.416 15.9834 150.416 16.2432C150.416 16.3623 150.31 16.4922 150.146 16.4922C149.941 16.4922 149.565 16.2078 149.565 15.8481C149.565 15.1749 150.045 14.59 151.142 13.4794L153.072 11.5265C152.278 11.1315 151.123 10.635 150.478 10.3629V10.2799C150.665 10.2276 150.79 10.0378 150.79 9.82263V8.22246C150.79 8.04646 150.709 7.77824 150.478 7.7037V7.61992C152.094 7.05963 154.14 5.93063 155.314 5.12749C155.577 5.41109 156.275 6.02055 157.016 6.02055C157.64 6.02055 157.784 5.71315 157.784 5.50103C157.784 5.38036 157.555 5.31425 157.555 5.12749C157.555 4.96686 157.639 4.89848 157.763 4.89848C157.947 4.89848 158.282 5.07752 158.282 5.418Z" fill="#011E32" fill-opacity="0.24"/>
</g>
<path d="M147.095 9.49056C146.557 8.7612 145.596 7.5661 145 6.70608L144.937 6.72681V10.8202L147.095 9.49056ZM149.503 8.55524L144.937 11.3182V13.2089C145.515 13.4525 146.709 13.9805 147.324 14.3725L148.299 13.3964C148.57 13.1251 148.544 12.6486 149.026 12.6486C149.161 12.6486 149.296 12.8522 149.296 13.0013C149.296 13.1604 149.167 13.2365 149.088 13.3134L146.12 16.2016C145.1 15.5653 143.03 14.6392 142.011 14.2272V14.1442C142.176 14.0842 142.363 13.9743 142.363 13.5624V8.30545C142.363 7.87582 142.198 7.73747 142.011 7.70365V7.61987C143.55 7.13414 145.897 5.91445 147.013 5.14742C147.783 6.26952 148.771 7.65756 149.503 8.55524ZM116.795 14.1235V4.58714C116.679 4.59483 116.477 4.60712 116.359 4.60712C115.697 4.60712 114.536 4.35581 113.786 4.1506C111.554 4.54257 108.97 6.37943 108.97 9.82259C108.97 12.7754 111.129 14.6638 114.2 14.6638C115.239 14.6638 116.157 14.4924 116.795 14.1235ZM119.452 2.05165C119.452 3.55803 118.422 4.32045 117.21 4.54488V13.8952C118.768 13.0536 118.995 12.1913 118.995 11.7547C118.995 11.6602 118.788 11.5311 118.788 11.3605C118.788 11.2275 118.957 11.1107 119.078 11.1107C119.254 11.1107 119.327 11.2667 119.327 11.5473C119.327 13.7353 117.182 16.6797 112.603 16.6797C109.167 16.6797 106.252 14.0573 106.252 10.6741C106.252 5.84987 110.401 4.17289 113.287 4.00457C112.229 3.78015 110.544 3.42276 109.137 3.42276C107.502 3.42276 106.148 4.36885 106.148 5.21042C106.148 5.52784 106.418 5.5878 106.418 5.81222C106.418 5.93596 106.365 6.08275 106.19 6.08275C105.92 6.08275 105.691 5.80913 105.691 5.6047C105.691 3.77168 107.043 1.15859 109.884 1.15859C112.765 1.15859 114.905 2.17615 117.148 2.17615C118.63 2.17615 119.053 1.66739 118.995 0.825816L119.327 0.929579C119.384 1.061 119.452 1.48983 119.452 2.05165ZM97.1823 14.6638V11.651C96.8168 11.4827 96.403 11.249 96.0406 11.0692L93.1354 14.0612L93.2391 14.0819C93.6905 13.8429 93.8725 13.5416 94.7961 13.5416C95.7389 13.5416 96.6902 14.2057 97.1408 14.6845L97.1823 14.6638ZM100.15 5.41795C100.15 6.42784 98.9711 7.7659 97.4111 7.7659C96.3838 7.7659 95.775 7.25636 95.2936 6.60231L95.2522 6.62305V9.13701L96.664 9.80181L97.3067 9.15779C97.9731 9.56743 99.3527 10.2853 100.088 10.5911V10.6534C99.9439 10.7126 99.7765 10.874 99.7765 11.173V12.9391C99.7765 13.1927 99.9531 13.361 100.088 13.4171V13.5001C98.5873 14.1365 96.4306 15.2847 95.3765 16.2016C94.8383 15.6967 94.1128 15.2248 93.1769 15.2248C92.2994 15.2248 91.9109 15.5376 91.9109 15.8273C91.9109 16.008 92.2848 15.9834 92.2848 16.2432C92.2848 16.3623 92.1788 16.4921 92.0145 16.4921C91.8095 16.4921 91.4333 16.2078 91.4333 15.8481C91.4333 15.1748 91.9132 14.59 93.0111 13.4794L94.9412 11.5265C94.1466 11.1314 92.9911 10.635 92.347 10.3629V10.2799C92.5343 10.2276 92.6579 10.0378 92.6579 9.82259V8.22242C92.6579 8.04642 92.5773 7.7782 92.347 7.70365V7.61987C93.9631 7.05959 96.0091 5.93059 97.1823 5.12744C97.4456 5.41104 98.1427 6.0205 98.8844 6.0205C99.5086 6.0205 99.6521 5.7131 99.6521 5.50098C99.6521 5.38031 99.4241 5.3142 99.4241 5.12744C99.4241 4.96681 99.5078 4.89843 99.6314 4.89843C99.8157 4.89843 100.15 5.07748 100.15 5.41795Z" fill="#011E32" fill-opacity="0.24"/>
<path d="M89.0263 9.49103C88.4873 8.76167 87.5261 7.56656 86.9303 6.70654L86.8674 6.72728V10.8206L89.0263 9.49103ZM91.4332 8.55571L86.8674 11.3187V13.2093C87.4447 13.453 88.6386 13.981 89.2543 14.3729L90.2301 13.3968C90.5011 13.1255 90.4758 12.6491 90.9564 12.6491C91.0908 12.6491 91.2259 12.8527 91.2259 13.0018C91.2259 13.1609 91.0977 13.237 91.0186 13.3139L88.0505 16.2021C87.0309 15.5657 84.961 14.6396 83.9414 14.2277V14.1447C84.1057 14.0847 84.2939 13.9748 84.2939 13.5628V8.30591C84.2939 7.87629 84.1288 7.73793 83.9414 7.70412V7.62034C85.4808 7.1346 87.8271 5.91491 88.9434 5.14789C89.7127 6.26999 90.7023 7.65803 91.4332 8.55571ZM75.4739 9.49103C74.9349 8.76167 73.9737 7.56656 73.3779 6.70654L73.3157 6.72728V10.8206L75.4739 9.49103ZM77.8816 8.55571L73.3157 11.3187V13.2093C73.8931 13.453 75.0862 13.981 75.7019 14.3729L76.677 13.3968C76.948 13.1255 76.9227 12.6491 77.404 12.6491C77.5384 12.6491 77.6735 12.8527 77.6735 13.0018C77.6735 13.1609 77.5453 13.237 77.4662 13.3139L74.4981 16.2021C73.4785 15.5657 71.4087 14.6396 70.3891 14.2277V14.1447C70.5541 14.0847 70.7422 13.9748 70.7422 13.5628V8.30591C70.7422 7.87629 70.5764 7.73793 70.3891 7.70412V7.62034C71.9284 7.1346 74.2747 5.91491 75.391 5.14789C76.1603 6.26999 77.1499 7.65803 77.8816 8.55571ZM65.844 14.3945V8.51419C65.0939 8.10301 63.8486 7.2737 63.0217 6.582L62.9802 6.60278V13.1686C63.7303 13.5044 64.9749 14.2108 65.533 14.6227L65.844 14.3945ZM69.4555 15.3705C69.3933 17.7454 68.1672 19.3809 65.8854 19.3809C64.1004 19.3809 62.796 18.4878 61.1745 18.4878C60.2301 18.4878 59.7188 18.7699 59.4517 19.0896L59.3273 19.0274C59.4232 17.3073 60.6732 16.3474 62.2747 16.3474C64.039 16.3474 65.325 17.4487 67.1929 17.4487C68.386 17.4487 69.0079 16.8392 69.123 16.2228L69.1023 16.1814C68.852 16.3305 68.525 16.5134 68.0443 16.5134C67.0816 16.5134 66.0382 15.867 65.8647 14.7265C65.4056 15.0377 64.3868 15.8171 63.9346 16.2021C62.8075 15.4935 60.9795 14.6104 60.095 14.2277V14.1447C60.2793 14.0863 60.4067 13.8641 60.4067 13.6459V8.28513C60.4067 7.96695 60.3 7.74408 60.0743 7.70412V7.62034C61.7096 7.04084 63.7956 5.9664 64.9311 5.10637C65.9146 5.86341 67.7173 6.93016 68.7707 7.51657V7.62034C68.5396 7.7141 68.4175 7.86399 68.4175 8.36816V14.1447C68.4175 14.8863 68.4881 15.3913 69.0401 15.3913C69.1276 15.3913 69.2328 15.3183 69.3096 15.2253L69.4555 15.3705ZM43.077 10.0513L41.1054 4.15107L38.9265 10.0513H43.077ZM48.9503 13.8334L46.3353 16.2021C45.6044 15.6972 44.9757 15.2875 44.0528 14.7265V14.6227C44.2616 14.5489 44.3615 14.3445 44.3638 14.1031C44.3645 13.9971 44.3377 13.8826 44.3016 13.7711L43.5546 11.4854H38.3868L37.702 13.3968C38.7707 13.3968 39.3188 13.516 39.8394 13.7289L40.3584 12.8151L40.7737 13.0225L38.9887 16.2228C38.2885 15.8355 37.497 15.5365 36.6018 15.5365C35.5469 15.5365 34.7507 15.804 34.3607 16.1606C34.2824 16.2321 34.1695 16.2128 34.2156 16.0568C34.6386 14.6165 35.5906 13.5183 37.2244 13.4176L40.8359 3.69375C40.462 2.71691 40.1004 2.32264 39.196 2.32264C38.3492 2.32264 37.5154 2.70464 37.5154 3.71453C37.5154 4.18182 37.9922 4.14185 37.9922 4.48309C37.9922 4.60299 37.8862 4.73288 37.7227 4.73288C37.4148 4.73288 37.1 4.33399 37.1 3.54852C37.1 1.77161 38.5895 0.722519 40.1096 0.722519C41.4947 0.722519 42.0521 1.24207 42.4751 1.80312C42.6102 1.27973 43.1231 0.932308 43.5338 0.86775L43.6582 1.07528C43.4018 1.38501 43.2636 1.65938 43.2636 2.05211C43.2636 2.25655 43.3511 2.6785 43.4094 2.84221L47.2904 13.7711L47.9545 14.1654L48.6601 13.5214L48.9503 13.8334ZM27.2006 14.6642V11.6514C26.8352 11.4831 26.4206 11.2495 26.059 11.0697L23.1538 14.0617L23.2574 14.0824C23.7089 13.8434 23.8901 13.5421 24.8137 13.5421C25.7565 13.5421 26.7077 14.2061 27.1592 14.685L27.2006 14.6642ZM30.168 5.41842C30.168 6.4283 28.9887 7.76636 27.4286 7.76636C26.4022 7.76636 25.7926 7.25683 25.3119 6.60278L25.2705 6.62351V9.13747L26.6816 9.80227L27.325 9.15826C27.9906 9.5679 29.3703 10.2857 30.1058 10.5916V10.6539C29.9622 10.713 29.7949 10.8745 29.7949 11.1734V12.9396C29.7949 13.1932 29.9715 13.3615 30.1058 13.4176V13.5006C28.6056 14.137 26.449 15.2852 25.3949 16.2021C24.8559 15.6972 24.1312 15.2253 23.1953 15.2253C22.3177 15.2253 21.9292 15.5381 21.9292 15.8278C21.9292 16.0084 22.3024 15.9838 22.3024 16.2436C22.3024 16.3627 22.1964 16.4926 22.0329 16.4926C21.8271 16.4926 21.4517 16.2082 21.4517 15.8485C21.4517 15.1753 21.9315 14.5904 23.0287 13.4799L24.9588 11.5269C24.1649 11.1319 23.0095 10.6354 22.3646 10.3634V10.2803C22.5519 10.2281 22.6763 10.0382 22.6763 9.82305V8.22289C22.6763 8.04688 22.5956 7.77867 22.3646 7.70412V7.62034C23.9807 7.06005 26.0267 5.93105 27.2006 5.12791C27.4632 5.41151 28.1611 6.02096 28.902 6.02096C29.5261 6.02096 29.6697 5.71357 29.6697 5.50144C29.6697 5.38078 29.4417 5.31467 29.4417 5.12791C29.4417 4.96728 29.5262 4.8989 29.649 4.8989C29.8333 4.8989 30.168 5.07794 30.168 5.41842ZM18.1312 14.685V8.51419C17.2459 8.04691 15.9446 7.10539 15.3289 6.582L15.2874 6.60278V12.898C16.1342 13.3469 17.3972 14.1262 18.0897 14.7057L18.1312 14.685ZM21.0571 13.5006C19.7703 14.0117 17.2782 15.2852 16.201 16.2021C15.0655 15.3974 13.4148 14.3368 12.3615 13.7496V13.6881C12.631 13.5944 12.6931 13.403 12.6931 13.0848V8.36816C12.6931 7.93469 12.5926 7.77867 12.3615 7.70412V7.62034C14.1311 6.98474 15.7941 6.08092 17.2175 5.12791C18.1987 5.83806 19.9223 6.88331 21.0571 7.53735V7.62034C20.8521 7.70103 20.7047 7.90547 20.7047 8.22289V12.898C20.7047 13.2347 20.8459 13.3615 21.0571 13.4176V13.5006ZM7.3181 12.8565V4.10955C6.05591 3.97506 5.50084 3.16117 5.07704 2.67544L3.85248 3.6315C3.85862 4.96188 4.23405 6.04018 4.70315 7.10157C5.13156 8.07149 5.61678 9.3273 5.61678 10.1965C5.61678 11.6299 4.79911 12.5345 2.85593 14.3114L2.91811 14.3729C4.07281 13.5321 5.76724 12.8819 7.3181 12.8565ZM12.0705 12.8358L10.1826 16.2643C9.19374 15.5942 7.60601 15.1837 6.25937 15.1837C3.60448 15.1837 1.78567 15.6426 0.842872 16.2228L0.718506 16.0983C1.56073 15.3813 2.98107 14.2308 2.98107 11.61C2.98107 10.5055 2.5235 9.25429 2.19183 8.43116C1.80872 7.47815 1.507 6.97706 1.507 5.64668C1.507 3.33023 2.7945 2.02216 4.80678 1.03456L4.95265 1.2213C4.25784 1.78235 3.93462 2.50558 3.83174 3.23648L7.04863 0.618755C7.87243 1.74316 8.64863 2.17661 9.6636 2.17661C10.4958 2.17661 10.7423 1.81773 10.7423 1.53259C10.7423 1.32662 10.4521 1.29817 10.4521 1.09681C10.4521 0.905436 10.5864 0.847015 10.7008 0.847015C10.9565 0.847015 11.1991 1.16749 11.1991 1.40805C11.1991 2.98514 9.73654 4.15107 8.29393 4.15107C8.04365 4.15107 7.87165 4.17797 7.71273 4.15107V12.8565C8.9634 12.8565 10.1527 13.1994 11.0955 13.6674L11.6766 12.6698L12.0705 12.8358ZM115.944 5.41842C115.944 5.54907 115.792 5.64668 115.695 5.64668C115.529 5.64668 115.389 5.33543 114.927 5.33543C114.248 5.33543 113.681 5.9003 113.681 6.56126C113.681 8.30052 115.446 9.00375 115.446 10.9866C115.446 12.6498 113.773 13.6136 112.042 13.8334L111.71 13.6044C112.658 13.4845 113.121 13.1671 113.121 12.0465C113.121 10.5317 111.502 9.29887 111.502 7.51657C111.502 6.07552 112.897 4.96114 114.802 4.96114C115.173 4.96114 115.535 5.07178 115.736 5.16862C115.852 5.22473 115.944 5.30621 115.944 5.41842Z" fill="#011E32" fill-opacity="0.24"/>
</g>
</g>
</g>
<defs>
<clipPath id="clip0_162_71689">
<rect width="158.824" height="20" fill="white" transform="translate(0.0881348)"/>
</clipPath>
</defs>
</svg>
