<svg width="159" height="20" viewBox="0 0 159 20" fill="none" xmlns="http://www.w3.org/2000/svg">
<g clip-path="url(#clip0_162_72419)">
<mask id="mask0_162_72419" style="mask-type:luminance" maskUnits="userSpaceOnUse" x="0" y="0" width="159" height="20">
<path d="M0.806763 19.3811H158.37V0.618984H0.806763V19.3811Z" fill="white"/>
</mask>
<g mask="url(#mask0_162_72419)">
<mask id="mask1_162_72419" style="mask-type:luminance" maskUnits="userSpaceOnUse" x="-221" y="-59" width="602" height="1278">
<path d="M-220.952 1218.18H380.2V-58.8083H-220.952V1218.18Z" fill="white"/>
</mask>
<g mask="url(#mask1_162_72419)">
<mask id="mask2_162_72419" style="mask-type:luminance" maskUnits="userSpaceOnUse" x="0" y="0" width="159" height="20">
<path d="M0.806763 0.618877H158.37V19.381H0.806763V0.618877Z" fill="white"/>
</mask>
<g mask="url(#mask2_162_72419)">
<path d="M141.871 13.9373C141.255 14.4422 139.854 15.6597 139.277 16.2023C138.738 15.7342 137.624 14.8804 136.931 14.3946V14.3116C137.131 14.2455 137.264 14.0656 137.264 13.6253V8.43133C136.705 8.0386 135.806 7.45452 135.208 7.081L134.606 7.68355V13.8751L135.541 14.5606C135.541 14.5606 134.229 15.6597 133.652 16.2023C133.133 15.7158 132.373 15.1486 131.68 14.6436V14.5814C131.881 14.516 132.012 14.3154 132.012 13.8751V8.43133C131.455 8.0386 130.576 7.49599 129.978 7.12247L129.253 7.68355V13.8751L130.186 14.5606C130.186 14.5606 128.912 15.5874 128.298 16.1815C127.72 15.6766 127.095 15.2162 126.326 14.6436V14.6021C126.543 14.5168 126.679 14.2563 126.679 13.9581V7.70429L125.974 7.10174L125.205 7.80805L124.853 7.45449C125.429 6.98721 126.661 5.91508 127.488 5.14806L129.253 6.68593V7.12247L131.639 5.14806C132.389 5.67222 134.606 7.03949 134.606 7.03949L136.89 5.14806C137.621 5.70911 139.287 6.72286 140.21 7.24701V7.33C139.902 7.40993 139.878 7.78882 139.878 7.99479V13.6253L140.791 14.2693L141.518 13.6253L141.871 13.9373ZM124.894 3.11215C124.279 3.95373 123.777 4.33799 122.778 4.33799C122.103 4.33799 121.739 4.14278 121.2 3.50718L120.453 4.19275L120.12 3.79768L122.715 1.53277C123.389 2.86084 124.199 3.04757 124.853 3.02912L124.894 3.11215Z" fill="#000E18" fill-opacity="0.59"/>
<path d="M125.724 13.8959C125.051 14.4569 123.723 15.6082 123.109 16.2023C122.532 15.6974 121.554 14.9665 120.785 14.3947V14.3316C121.001 14.2463 121.117 13.9866 121.117 13.6884V7.70434L120.432 7.12252L119.623 7.82883L119.29 7.49606C119.868 7.02877 121.119 5.91513 121.948 5.14811L124.044 6.95576V7.03954C123.793 7.11332 123.711 7.27009 123.711 7.82883V13.6253L124.624 14.2279L125.371 13.5631L125.724 13.8959ZM83.5737 13.8959C82.8996 14.4569 81.5514 15.6082 80.9372 16.2023C80.3599 15.6974 79.3818 14.9665 78.6132 14.3947V14.3316C78.829 14.2463 78.9449 13.9866 78.9449 13.6884V3.98453L78.2393 3.38198L77.4716 4.04753L77.1392 3.71475C77.7165 3.24747 78.8236 2.21681 79.6505 1.44979L81.8716 3.25743V3.34046C81.6213 3.41501 81.5184 3.57181 81.5184 4.13056V13.6253L82.4735 14.2486L83.2413 13.5631L83.5737 13.8959ZM59.7265 13.9374C59.1115 14.4423 57.6889 15.6597 57.1123 16.2023C56.5733 15.7343 55.4801 14.8804 54.7875 14.3947V14.3116C54.9879 14.2455 55.1407 14.0657 55.1407 13.6253V8.43138C54.5826 8.03865 53.682 7.47531 53.0854 7.10179C52.9641 7.1894 52.4843 7.53218 52.3591 7.64209V13.8751L53.3142 14.5607C53.3142 14.5607 52.0398 15.5875 51.4256 16.1816C50.8482 15.6766 50.2025 15.2162 49.4332 14.6437V14.6022C49.649 14.5169 49.7856 14.2563 49.7856 13.9581V7.70434L49.0593 7.10179L48.333 7.70434L48.0221 7.37156C48.5987 6.90428 49.7887 5.91513 50.6163 5.14811L52.3591 6.68598V7.12252L54.7461 5.14811C55.477 5.70916 57.143 6.72291 58.0666 7.24706V7.33005C57.7588 7.40998 57.7142 7.78887 57.7142 7.99484V13.6253L58.6271 14.2486L59.3741 13.6046L59.7265 13.9374ZM155.402 14.6644V11.6517C155.036 11.4833 154.622 11.2497 154.261 11.0699L151.355 14.0619L151.459 14.0826C151.911 13.8436 152.092 13.5423 153.015 13.5423C153.958 13.5423 154.91 14.2064 155.361 14.6852L155.402 14.6644ZM158.37 5.41864C158.37 6.42852 157.191 7.76658 155.63 7.76658C154.603 7.76658 153.994 7.25705 153.513 6.603L153.472 6.62373V9.13769L154.883 9.80249L155.527 9.15848C156.192 9.56812 157.572 10.2859 158.308 10.5918V10.6541C158.163 10.7133 157.997 10.8747 157.997 11.1736V12.9398C157.997 13.1934 158.173 13.3617 158.308 13.4178V13.5008C156.807 14.1372 154.651 15.2854 153.597 16.2023C153.058 15.6974 152.332 15.2255 151.396 15.2255C150.52 15.2255 150.131 15.5383 150.131 15.828C150.131 16.0086 150.504 15.9841 150.504 16.2438C150.504 16.363 150.398 16.4928 150.234 16.4928C150.029 16.4928 149.653 16.2085 149.653 15.8488C149.653 15.1755 150.133 14.5907 151.23 13.4801L153.161 11.5272C152.367 11.1321 151.211 10.6356 150.566 10.3636V10.2805C150.754 10.2283 150.878 10.0385 150.878 9.82327V8.22311C150.878 8.0471 150.797 7.77889 150.566 7.70434V7.62056C152.182 7.06028 154.229 5.93127 155.402 5.12813C155.665 5.41173 156.363 6.02119 157.104 6.02119C157.728 6.02119 157.872 5.71379 157.872 5.50167C157.872 5.381 157.644 5.31489 157.644 5.12813C157.644 4.9675 157.727 4.89912 157.852 4.89912C158.035 4.89912 158.37 5.07816 158.37 5.41864Z" fill="#000E18" fill-opacity="0.59"/>
</g>
<path d="M147.184 9.49116C146.645 8.76179 145.684 7.56669 145.088 6.70667L145.025 6.72741V10.8208L147.184 9.49116ZM149.591 8.55584L145.025 11.3188V13.2095C145.603 13.4531 146.797 13.9811 147.412 14.3731L148.387 13.397C148.658 13.1257 148.632 12.6492 149.114 12.6492C149.249 12.6492 149.384 12.8528 149.384 13.0019C149.384 13.161 149.255 13.2371 149.176 13.314L146.208 16.2022C145.188 15.5659 143.118 14.6398 142.099 14.2278V14.1448C142.264 14.0848 142.451 13.9749 142.451 13.563V8.30604C142.451 7.87642 142.286 7.73806 142.099 7.70424V7.62047C143.638 7.13473 145.985 5.91504 147.101 5.14802C147.871 6.27012 148.86 7.65816 149.591 8.55584ZM116.883 14.1241V4.58774C116.768 4.59542 116.566 4.60772 116.447 4.60772C115.786 4.60772 114.624 4.3564 113.874 4.1512C111.642 4.54316 109.058 6.38003 109.058 9.82318C109.058 12.776 111.217 14.6644 114.288 14.6644C115.327 14.6644 116.245 14.493 116.883 14.1241ZM119.54 2.05224C119.54 3.55862 118.51 4.32105 117.298 4.54547V13.8958C118.857 13.0542 119.083 12.1919 119.083 11.7553C119.083 11.6608 118.876 11.5317 118.876 11.3611C118.876 11.2281 119.045 11.1113 119.166 11.1113C119.342 11.1113 119.415 11.2673 119.415 11.5478C119.415 13.7359 117.27 16.6803 112.691 16.6803C109.255 16.6803 106.34 14.0579 106.34 10.6747C106.34 5.85047 110.49 4.17348 113.376 4.00517C112.318 3.78075 110.632 3.42335 109.225 3.42335C107.59 3.42335 106.236 4.36944 106.236 5.21102C106.236 5.52843 106.506 5.5884 106.506 5.81282C106.506 5.93655 106.454 6.08334 106.278 6.08334C106.008 6.08334 105.779 5.80973 105.779 5.60529C105.779 3.77227 107.131 1.15919 109.972 1.15919C112.853 1.15919 114.993 2.17674 117.236 2.17674C118.718 2.17674 119.141 1.66798 119.083 0.826411L119.415 0.930174C119.472 1.0616 119.54 1.49043 119.54 2.05224ZM97.2704 14.6644V11.6516C96.905 11.4832 96.4911 11.2496 96.1288 11.0698L93.2236 14.0618L93.3272 14.0825C93.7787 13.8435 93.9606 13.5422 94.8842 13.5422C95.827 13.5422 96.7783 14.2063 97.229 14.6851L97.2704 14.6644ZM100.239 5.41854C100.239 6.42843 99.0593 7.76649 97.4992 7.76649C96.4719 7.76649 95.8631 7.25696 95.3817 6.60291L95.3403 6.62364V9.1376L96.7522 9.8024L97.3948 9.15838C98.0612 9.56803 99.4408 10.2859 100.176 10.5917V10.654C100.032 10.7132 99.8646 10.8746 99.8646 11.1736V12.9397C99.8646 13.1933 100.041 13.3616 100.176 13.4177V13.5007C98.6754 14.1371 96.5188 15.2853 95.4647 16.2022C94.9265 15.6973 94.2009 15.2254 93.265 15.2254C92.3875 15.2254 91.999 15.5382 91.999 15.8279C91.999 16.0086 92.3729 15.984 92.3729 16.2437C92.3729 16.3629 92.267 16.4927 92.1027 16.4927C91.8977 16.4927 91.5215 16.2084 91.5215 15.8487C91.5215 15.1754 92.0013 14.5906 93.0992 13.48L95.0294 11.5271C94.2347 11.132 93.0792 10.6356 92.4351 10.3635V10.2805C92.6224 10.2282 92.7461 10.0384 92.7461 9.82318V8.22301C92.7461 8.04701 92.6654 7.7788 92.4351 7.70424V7.62047C94.0512 7.06018 96.0973 5.93118 97.2704 5.12804C97.5337 5.41163 98.2309 6.02109 98.9725 6.02109C99.5967 6.02109 99.7403 5.7137 99.7403 5.50157C99.7403 5.38091 99.5123 5.3148 99.5123 5.12804C99.5123 4.96741 99.5959 4.89902 99.7195 4.89902C99.9038 4.89902 100.239 5.07807 100.239 5.41854Z" fill="#000E18" fill-opacity="0.59"/>
<path d="M89.1145 9.49115C88.5756 8.76179 87.6143 7.56669 87.0186 6.70667L86.9556 6.7274V10.8207L89.1145 9.49115ZM91.5215 8.55583L86.9556 11.3188V13.2095C87.533 13.4531 88.7268 13.9811 89.3426 14.373L90.3184 13.397C90.5894 13.1257 90.5641 12.6492 91.0447 12.6492C91.179 12.6492 91.3142 12.8528 91.3142 13.0019C91.3142 13.161 91.1859 13.2371 91.1069 13.314L88.1387 16.2022C87.1192 15.5659 85.0493 14.6398 84.0297 14.2278V14.1448C84.194 14.0848 84.3821 13.9749 84.3821 13.563V8.30604C84.3821 7.87641 84.217 7.73805 84.0297 7.70424V7.62046C85.569 7.13473 87.9153 5.91504 89.0316 5.14801C89.8009 6.27011 90.7906 7.65815 91.5215 8.55583ZM75.5622 9.49115C75.0232 8.76179 74.062 7.56669 73.4662 6.70667L73.404 6.7274V10.8207L75.5622 9.49115ZM77.9698 8.55583L73.404 11.3188V13.2095C73.9813 13.4531 75.1744 13.9811 75.7902 14.373L76.7652 13.397C77.0363 13.1257 77.0109 12.6492 77.4923 12.6492C77.6266 12.6492 77.7618 12.8528 77.7618 13.0019C77.7618 13.161 77.6336 13.2371 77.5545 13.314L74.5863 16.2022C73.5668 15.5659 71.4969 14.6398 70.4773 14.2278V14.1448C70.6424 14.0848 70.8305 13.9749 70.8305 13.563V8.30604C70.8305 7.87641 70.6647 7.73805 70.4773 7.70424V7.62046C72.0167 7.13473 74.3629 5.91504 75.4792 5.14801C76.2485 6.27011 77.2382 7.65815 77.9698 8.55583ZM65.9322 14.3946V8.51431C65.1821 8.10313 63.9368 7.27383 63.11 6.58212L63.0685 6.6029V13.1687C63.8186 13.5046 65.0631 14.2109 65.6213 14.6228L65.9322 14.3946ZM69.5437 15.3707C69.4816 17.7455 68.2555 19.381 65.9737 19.381C64.1887 19.381 62.8842 18.4879 61.2627 18.4879C60.3184 18.4879 59.8071 18.77 59.5399 19.0897L59.4155 19.0275C59.5115 17.3074 60.7614 16.3475 62.3629 16.3475C64.1272 16.3475 65.4132 17.4488 67.2812 17.4488C68.4743 17.4488 69.0961 16.8393 69.2113 16.223L69.1906 16.1815C68.9403 16.3306 68.6132 16.5135 68.1326 16.5135C67.1698 16.5135 66.1265 15.8671 65.953 14.7266C65.4938 15.0379 64.475 15.8172 64.0228 16.2022C62.8958 15.4936 61.0677 14.6106 60.1833 14.2278V14.1448C60.3675 14.0864 60.495 13.8643 60.495 13.646V8.28526C60.495 7.96707 60.3883 7.7442 60.1626 7.70424V7.62046C61.7979 7.04096 63.8839 5.96652 65.0194 5.1065C66.0029 5.86353 67.8055 6.93028 68.8589 7.51669V7.62046C68.6278 7.71422 68.5057 7.86411 68.5057 8.36829V14.1448C68.5057 14.8864 68.5764 15.3914 69.1284 15.3914C69.2159 15.3914 69.3211 15.3184 69.3979 15.2254L69.5437 15.3707ZM43.1653 10.0514L41.1937 4.15119L39.0148 10.0514H43.1653ZM49.0386 13.8335L46.4236 16.2022C45.6927 15.6973 45.0639 15.2876 44.1411 14.7266V14.6228C44.3499 14.5491 44.4497 14.3446 44.452 14.1033C44.4528 13.9972 44.4259 13.8827 44.3898 13.7712L43.6428 11.4855H38.475L37.7902 13.397C38.8589 13.397 39.4071 13.5161 39.9276 13.729L40.4466 12.8152L40.862 13.0227L39.077 16.223C38.3768 15.8356 37.5852 15.5366 36.69 15.5366C35.6351 15.5366 34.839 15.8041 34.449 16.1607C34.3706 16.2322 34.2578 16.213 34.3039 16.0569C34.7269 14.6167 35.6789 13.5184 37.3127 13.4177L40.9242 3.69387C40.5503 2.71703 40.1887 2.32276 39.2843 2.32276C38.4374 2.32276 37.6036 2.70476 37.6036 3.71465C37.6036 4.18194 38.0804 4.14197 38.0804 4.48321C38.0804 4.60311 37.9745 4.73301 37.8109 4.73301C37.5031 4.73301 37.1883 4.33411 37.1883 3.54864C37.1883 1.77173 38.6777 0.722641 40.1979 0.722641C41.5829 0.722641 42.1403 1.24219 42.5633 1.80324C42.6985 1.27985 43.2113 0.93243 43.6221 0.867872L43.7464 1.0754C43.49 1.38513 43.3518 1.6595 43.3518 2.05224C43.3518 2.25667 43.4393 2.67863 43.4977 2.84233L47.3787 13.7712L48.0428 14.1655L48.7484 13.5215L49.0386 13.8335ZM27.2889 14.6644V11.6516C26.9234 11.4832 26.5088 11.2496 26.1472 11.0698L23.242 14.0618L23.3457 14.0825C23.7971 13.8435 23.9783 13.5422 24.9019 13.5422C25.8447 13.5422 26.796 14.2063 27.2474 14.6851L27.2889 14.6644ZM30.2563 5.41854C30.2563 6.42843 29.077 7.76649 27.5169 7.76649C26.4904 7.76649 25.8808 7.25695 25.4002 6.6029L25.3588 6.62364V9.1376L26.7699 9.80239L27.4133 9.15838C28.0789 9.56802 29.4586 10.2858 30.1941 10.5917V10.654C30.0505 10.7132 29.8831 10.8746 29.8831 11.1736V12.9397C29.8831 13.1933 30.0597 13.3616 30.1941 13.4177V13.5007C28.6939 14.1371 26.5373 15.2853 25.4831 16.2022C24.9442 15.6973 24.2194 15.2254 23.2835 15.2254C22.406 15.2254 22.0175 15.5382 22.0175 15.8279C22.0175 16.0085 22.3906 15.984 22.3906 16.2437C22.3906 16.3629 22.2847 16.4927 22.1211 16.4927C21.9154 16.4927 21.54 16.2084 21.54 15.8487C21.54 15.1754 22.0198 14.5906 23.1169 13.48L25.047 11.5271C24.2532 11.132 23.0977 10.6355 22.4528 10.3635V10.2804C22.6401 10.2282 22.7645 10.0384 22.7645 9.82318V8.22301C22.7645 8.04701 22.6839 7.77879 22.4528 7.70424V7.62046C24.0689 7.06018 26.115 5.93118 27.2889 5.12803C27.5514 5.41163 28.2493 6.02109 28.9902 6.02109C29.6144 6.02109 29.758 5.71369 29.758 5.50157C29.758 5.3809 29.53 5.31479 29.53 5.12803C29.53 4.9674 29.6144 4.89902 29.7373 4.89902C29.9215 4.89902 30.2563 5.07806 30.2563 5.41854ZM18.2194 14.6851V8.51431C17.3342 8.04703 16.0329 7.10551 15.4171 6.58212L15.3756 6.6029V12.8982C16.2225 13.347 17.4854 14.1263 18.178 14.7058L18.2194 14.6851ZM21.1453 13.5007C19.8586 14.0118 17.3664 15.2853 16.2893 16.2022C15.1538 15.3975 13.5031 14.3369 12.4497 13.7498V13.6883C12.7192 13.5945 12.7814 13.4031 12.7814 13.085V8.36829C12.7814 7.93482 12.6808 7.77879 12.4497 7.70424V7.62046C14.2194 6.98486 15.8824 6.08104 17.3058 5.12803C18.287 5.83818 20.0106 6.88343 21.1453 7.53748V7.62046C20.9403 7.70116 20.7929 7.90559 20.7929 8.22301V12.8982C20.7929 13.2348 20.9342 13.3616 21.1453 13.4177V13.5007ZM7.40636 12.8567V4.10968C6.14417 3.97518 5.5891 3.1613 5.1653 2.67557L3.94073 3.63162C3.94688 4.962 4.32231 6.04031 4.79141 7.10169C5.21981 8.07161 5.70503 9.32742 5.70503 10.1967C5.70503 11.63 4.88737 12.5346 2.94419 14.3115L3.00637 14.373C4.16107 13.5322 5.85549 12.882 7.40636 12.8567ZM12.1588 12.8359L10.2709 16.2645C9.28199 15.5943 7.69426 15.1839 6.34763 15.1839C3.69273 15.1839 1.87393 15.6427 0.931129 16.223L0.806763 16.0985C1.64899 15.3814 3.06933 14.2309 3.06933 11.6101C3.06933 10.5057 2.61176 9.25441 2.28009 8.43128C1.89698 7.47827 1.59525 6.97718 1.59525 5.6468C1.59525 3.33035 2.88275 2.02228 4.89504 1.03468L5.04091 1.22143C4.34609 1.78248 4.02288 2.5057 3.92 3.2366L7.13689 0.618877C7.96069 1.74328 8.73689 2.17673 9.75186 2.17673C10.5841 2.17673 10.8306 1.81785 10.8306 1.53272C10.8306 1.32674 10.5403 1.29829 10.5403 1.09693C10.5403 0.905558 10.6747 0.847137 10.7891 0.847137C11.0447 0.847137 11.2874 1.16761 11.2874 1.40817C11.2874 2.98526 9.8248 4.15119 8.38219 4.15119C8.1319 4.15119 7.95991 4.17809 7.80099 4.15119V12.8567C9.05166 12.8567 10.2409 13.1995 11.1837 13.6675L11.7649 12.6699L12.1588 12.8359ZM116.032 5.41854C116.032 5.54919 115.88 5.6468 115.783 5.6468C115.617 5.6468 115.477 5.33556 115.015 5.33556C114.336 5.33556 113.769 5.90042 113.769 6.56139C113.769 8.30064 115.534 9.00387 115.534 10.9868C115.534 12.6499 113.861 13.6137 112.13 13.8335L111.798 13.6045C112.746 13.4846 113.21 13.1672 113.21 12.0466C113.21 10.5318 111.591 9.29899 111.591 7.51669C111.591 6.07564 112.986 4.96127 114.89 4.96127C115.261 4.96127 115.624 5.07191 115.824 5.16875C115.94 5.22485 116.032 5.30633 116.032 5.41854Z" fill="#000E18" fill-opacity="0.59"/>
</g>
</g>
</g>
<defs>
<clipPath id="clip0_162_72419">
<rect width="158.824" height="20" fill="white" transform="translate(0.176514)"/>
</clipPath>
</defs>
</svg>
