<svg width="189" height="16" viewBox="0 0 189 16" fill="none" xmlns="http://www.w3.org/2000/svg">
<g clip-path="url(#clip0_162_71683)">
<path d="M187.902 13.8024C187.353 13.8024 186.895 14.2604 186.895 14.8786C186.895 15.4964 187.353 15.9544 187.902 15.9544C188.452 15.9544 188.91 15.4964 188.91 14.8786C188.91 14.2604 188.452 13.8024 187.902 13.8024ZM151.462 15.8854H156.085V15.4736L155.582 15.359C155.124 15.2445 154.918 14.9928 154.918 14.3516V8.12597H155.994C156.658 8.12597 157.001 8.28613 157.047 9.6826L157.161 12.6123C157.253 15.2445 158.008 15.9772 159.29 15.9772C160.595 15.9772 160.938 15.0843 160.938 13.8255V13.2988H160.457V13.6878C160.457 14.5351 160.343 15.1302 160.022 15.1302C159.725 15.1302 159.702 14.9014 159.633 13.8483L159.496 11.8343C159.313 9.13312 158.969 8.19465 156.978 7.82814C158.878 7.32486 160.045 5.92839 160.045 3.93687C160.045 1.35028 158.008 0.114271 156.063 0.114271H148.257V0.52637L148.692 0.617844C149.516 0.801099 149.539 1.236 149.539 3.09016V12.2002C149.539 14.2376 148.966 15.2217 147.662 15.2217C146.495 15.2217 145.854 14.6494 145.854 12.429V1.60221C145.854 0.961262 146.059 0.778312 146.563 0.663741L147.181 0.52637V0.114271H142.397V0.52637L142.9 0.663741C143.358 0.801108 143.519 0.984354 143.519 1.62501V12.2689C143.519 14.6722 144.915 16 147.044 16C149.173 16 150.225 14.6722 150.225 12.2002V2.26596C150.225 1.02996 150.478 0.595048 151.484 0.595048C152.286 0.595048 152.629 0.869783 152.629 1.62501V14.3516C152.629 14.9928 152.423 15.2217 151.965 15.3362L151.462 15.4736V15.8854ZM182.18 1.62501C182.18 0.984354 182.386 0.778313 182.843 0.686537L183.462 0.549166V0.114271H178.701V0.52637L179.204 0.663741C179.662 0.801108 179.868 0.984354 179.868 1.62501V14.4437C179.868 15.0615 179.617 15.4049 178.906 15.4049C178.082 15.4049 177.968 15.1302 177.671 13.7799L174.741 0.0686783H173.825L171.033 13.3447C170.712 14.8324 170.552 15.1761 169.934 15.359L169.544 15.4736V15.8854H172.818V15.4736L172.337 15.3818C171.65 15.2445 171.467 14.8786 171.811 13.1387L173.459 4.64649L175.267 13.6423C175.542 14.947 175.519 15.1989 174.535 15.3818L174.054 15.4736V15.8854H186.186V10.6667H185.751C185.522 13.07 185.041 15.3362 183.096 15.3362H182.18V1.62501ZM175.038 11.6279V11.0101H171.948L171.857 11.6279H175.038ZM162.266 1.89975V12.8412C162.266 14.4893 162.266 15.2676 161.442 15.4049L161.03 15.4736V15.8854H164.394V15.4736C162.929 15.2676 162.929 14.764 162.929 12.9785V2.58657L162.38 2.083L167.988 15.8854H168.949V3.15884C168.949 1.28189 168.949 0.869783 169.865 0.617844L170.186 0.52637V0.114271H166.729V0.52637L167.118 0.617844C168.286 0.823895 168.286 1.2819 168.286 3.02148V10.987L168.515 10.9183L164.257 0.114271H160.984V0.52637L161.304 0.617844C161.671 0.732416 161.877 1.14453 162.266 1.89975ZM154.918 0.663741H155.834C156.749 0.663741 157.596 1.2588 157.596 4.23469C157.596 7.27897 156.955 7.5765 155.673 7.5765H154.918V0.663741ZM139.674 7.85123C139.674 14.4662 139.124 15.4049 137.934 15.4049C136.743 15.4049 136.217 14.4662 136.217 7.89682C136.217 1.53353 136.789 0.617844 137.934 0.617844C139.124 0.617844 139.674 1.53353 139.674 7.85123ZM142.169 7.9886C142.169 3.61654 140.772 0 137.934 0C135.073 0 133.722 3.61654 133.722 7.9886C133.722 12.3835 135.118 16 137.934 16C140.841 16 142.169 12.3835 142.169 7.9886ZM132.372 1.62501C132.372 0.984354 132.532 0.778312 132.989 0.663741L133.493 0.52637V0.114271H128.755V0.52637L129.327 0.663741C129.785 0.778312 130.037 0.938466 130.037 1.60221V12.6123C130.037 14.1458 129.899 15.3818 128.755 15.3818C128.022 15.3818 127.473 14.8096 127.496 14.3978C127.564 13.6878 128.755 13.734 128.846 12.5892C128.915 11.7653 128.388 11.4219 127.908 11.3535C127.198 11.2617 126.329 11.8568 126.305 13.0472C126.282 14.5807 127.29 15.9772 129.007 15.9772C130.907 15.9772 132.372 14.6953 132.372 12.2458V1.62501ZM55.919 1.62501C55.919 0.984354 56.1251 0.778313 56.5828 0.686537L57.2009 0.549166V0.114271H52.4398V0.52637L52.9434 0.663741C53.4011 0.801108 53.6072 0.984354 53.6072 1.62501V14.4437C53.6072 15.0615 53.3552 15.4049 52.6456 15.4049C51.8217 15.4049 51.6843 15.1302 51.3868 13.7799L48.4568 0.0686783H47.5414L44.7488 13.3447C44.4284 14.8324 44.268 15.1761 43.6501 15.359L43.2608 15.4736V15.8854H46.5342V15.4736L46.0535 15.3818C45.3669 15.2445 45.1837 14.8786 45.5271 13.1387L47.1752 4.60061L48.9835 13.6423C49.2351 14.947 49.2351 15.1989 48.251 15.3818L47.7702 15.4736V15.8854H59.9249V10.6667H59.49C59.2611 13.07 58.7803 15.3362 56.8347 15.3362H55.919V1.62501ZM119.644 0.663741H120.148C121.568 0.663741 122.048 2.9297 122.208 5.33333H122.643V0.114271H114.334V5.33333H114.769C114.929 2.9297 115.41 0.663741 116.829 0.663741H117.333V14.3516C117.333 14.9928 117.127 15.2217 116.669 15.3362L116.074 15.4736V15.8854H121.018V15.4736L120.308 15.3135C119.873 15.1989 119.644 15.0615 119.644 14.3516V0.663741ZM109.184 7.96551L109.893 7.9886C110.924 8.0114 111.221 8.4007 111.427 10.8958H111.862V4.53222H111.427C111.175 6.52374 110.9 7.37044 109.916 7.39353L109.184 7.41635V0.663755H110.763C112.526 0.663755 112.915 2.88413 113.167 5.33334H113.602V0.114286H105.705V0.526384L106.208 0.663755C106.734 0.801122 106.872 1.12174 106.872 1.64812V14.3516C106.872 14.9928 106.666 15.2217 106.208 15.3363L105.705 15.4736V15.8854H113.83V10.6667H113.396C113.121 13.0472 112.823 15.3363 110.763 15.3363H109.184V7.96551ZM100.554 7.96551L101.264 7.9886C102.294 8.0114 102.592 8.4007 102.798 10.8958H103.232V4.53222H102.798C102.546 6.52374 102.271 7.37044 101.287 7.39353L100.554 7.41635V0.663755H102.134C103.897 0.663755 104.286 2.92972 104.537 5.33334H104.972V0.114286H96.8464V0.526384L97.5788 0.663755C98.1052 0.801122 98.2426 1.12174 98.2426 1.64812V14.3516C98.2426 14.9928 98.0365 15.2217 97.5788 15.3363L97.0752 15.4736V15.8854H105.201V10.6667H104.766C104.492 13.0472 104.194 15.3363 102.134 15.3363H100.554V7.96551ZM91.1465 0.663741H91.8334C92.7488 0.663741 93.5958 1.2588 93.5958 4.23469C93.5958 7.23308 92.9551 7.5765 91.6732 7.5765H91.1465V0.663741ZM87.6902 15.8854H92.3142V15.4736L91.8103 15.359C91.3526 15.2445 91.1465 14.9928 91.1465 14.3516V8.12597H91.9935C92.6573 8.12597 93.0007 8.4007 93.0466 9.6826L93.1609 12.6123C93.2526 15.2445 94.0079 15.9772 95.2897 15.9772C96.5944 15.9772 96.9376 15.0843 96.9376 13.8255V13.2988H96.4571V13.6878C96.4571 14.5351 96.3428 15.1302 96.0222 15.1302C95.7247 15.1302 95.7016 14.9014 95.6332 13.8483L95.4955 11.8343C95.3126 9.06444 94.9463 8.19465 92.9779 7.82814C94.8777 7.32486 96.045 5.92839 96.045 3.93687C96.045 1.35028 94.0079 0.114271 92.0622 0.114271H87.6902V0.52637L88.1937 0.663741C88.6517 0.801108 88.8575 0.984354 88.8575 1.62501V14.3516C88.8575 14.9928 88.6517 15.2217 88.1937 15.3362L87.6902 15.4736V15.8854ZM84.1882 0.663741H84.6918C86.1107 0.663741 86.5915 2.9297 86.752 5.33333H87.1866V0.114271H78.8777V5.33333H79.3126C79.4727 2.9297 79.9535 0.663741 81.3728 0.663741H81.8763V14.3516C81.8763 14.9928 81.67 15.2217 81.2126 15.3362L80.6172 15.4736V15.8854H85.447V15.4736L84.8519 15.3362C84.2569 15.1989 84.1882 14.7412 84.1882 14.3516V0.663741ZM78.9005 11.7881C78.9005 7.09571 73.7504 5.85971 73.7504 2.44922C73.7504 1.71679 74.0251 0.617844 75.1693 0.617844C76.8174 0.617844 77.4356 2.74674 77.7103 5.33333H78.1452V0.114271H77.8705C77.7559 0.617851 77.5499 0.846994 77.2526 0.846994C76.726 0.846994 76.4512 0.0227964 75.1924 0.0227964C73.2468 0.0227964 71.919 1.6481 71.919 3.7767C71.919 7.64518 77.0694 9.2702 77.0694 12.8412C77.0694 14.4662 76.3139 15.3818 75.2839 15.3818C73.7504 15.3818 72.7432 13.5739 72.4685 10.6667H72.0336V15.8854H72.3083C72.5372 15.1302 72.8347 15.0615 73.0863 15.0615C73.5215 15.0615 73.9792 15.9772 75.3067 15.9772C77.3441 15.9772 78.9005 14.2148 78.9005 11.7881ZM63.9076 1.62501C63.9076 0.984354 64.1137 0.778313 64.5714 0.686537L65.1895 0.549166V0.114271H60.4284V0.52637L60.932 0.663741C61.3897 0.801108 61.5958 0.984354 61.5958 1.62501V14.3516C61.5958 14.9928 61.3897 15.2217 60.932 15.3362L60.4284 15.4736V15.8854H67.9135V10.6667H67.4783C67.2497 13.07 66.7689 15.3362 64.8233 15.3362H63.9076V1.62501ZM48.7543 11.6279V11.0101H45.6644L45.5727 11.6279H48.7543ZM35.5242 15.9313H36.4626L38.5912 4.66959H38.2709L40.6056 15.9313H41.4298L44.2224 2.65527C44.5199 1.2588 44.6801 0.778304 45.2295 0.640641L45.6644 0.52637V0.114271H42.4369V0.52637L42.9177 0.617844C43.6042 0.755211 43.7644 1.16731 43.4441 2.86101L41.6358 11.7653H41.9105L40.0792 2.38052C39.8959 1.48764 39.7816 0.755211 40.5372 0.617844L41.0405 0.52637V0.114271H36.6228V0.52637L36.9203 0.595048C37.3783 0.709323 37.447 0.984361 37.63 1.85415L38.3396 5.26464L38.2022 3.20443L36.6228 11.5365H36.8288L34.9747 2.38052C34.7686 1.44205 34.7 0.732415 35.4324 0.595048L35.7761 0.52637V0.114271H31.2667V0.52637L31.7016 0.640641C32.1134 0.755212 32.3425 0.961265 32.6172 2.22007L35.5242 15.9313ZM23.3009 7.96551L24.0105 7.9886C25.0404 8.0114 25.338 8.4007 25.544 10.8958H25.9789V4.53222H25.544C25.2924 6.52374 25.0177 7.37044 24.0333 7.39353L23.3009 7.41635V0.663755H24.8803C26.6427 0.663755 27.032 2.92972 27.2836 5.33334H27.7185V0.114286H19.8217V0.526384L20.3253 0.663755C20.8516 0.801122 20.989 1.12174 20.989 1.64812V14.3516C20.989 14.9928 20.783 15.2217 20.3253 15.3363L19.8217 15.4736V15.8854H27.9477V10.6667H27.5125C27.238 13.0472 26.9405 15.3363 24.8803 15.3363H23.3009V7.96551ZM8.90308 15.8854H13.5955V15.4736L13.0691 15.359C12.657 15.2676 12.3823 14.9928 12.3823 14.3516V8.10317H15.8386V14.3516C15.8386 14.9928 15.5642 15.2676 15.1521 15.359L14.6257 15.4736V15.8854H19.3181V15.4736L18.8145 15.3362C18.3568 15.2217 18.1505 14.9697 18.1505 14.3291V1.62501C18.1505 0.984354 18.3568 0.778312 18.8145 0.663741L19.3181 0.52637V0.114271H14.6257V0.52637L15.1521 0.663741C15.5411 0.778312 15.8386 0.938466 15.8386 1.60221V7.48501H12.3823V1.60221C12.3823 0.961262 12.6342 0.778312 13.0691 0.663741L13.5955 0.52637V0.114271H8.90308V0.52637L9.40666 0.663741C9.86465 0.801108 10.0704 0.984354 10.0704 1.62501V14.3516C10.0704 14.9928 9.86465 15.2217 9.40666 15.3362L8.90308 15.4736V15.8854ZM5.40082 0.663741H5.90469C7.32366 0.663741 7.80444 2.9297 7.96461 5.33333H8.3995V0.114271H0.0905762V5.33333H0.525473C0.685636 2.9297 1.16642 0.663741 2.58539 0.663741H3.08897V14.3516C3.08897 14.9928 2.88321 15.2217 2.42522 15.3362L1.83016 15.4736V15.8854H6.77449V15.4736L6.06486 15.3135C5.62996 15.1989 5.40082 15.0615 5.40082 14.3516V0.663741Z" fill="#011E32" fill-opacity="0.24"/>
</g>
<defs>
<clipPath id="clip0_162_71683">
<rect width="188.819" height="16" fill="white" transform="translate(0.0905762)"/>
</clipPath>
</defs>
</svg>
