<svg width="189" height="16" viewBox="0 0 189 16" fill="none" xmlns="http://www.w3.org/2000/svg">
<g clip-path="url(#clip0_162_72413)">
<path d="M187.812 13.8024C187.263 13.8024 186.805 14.2604 186.805 14.8786C186.805 15.4964 187.263 15.9544 187.812 15.9544C188.361 15.9544 188.819 15.4964 188.819 14.8786C188.819 14.2604 188.361 13.8024 187.812 13.8024ZM151.371 15.8854H155.994V15.4736L155.491 15.359C155.033 15.2445 154.827 14.9928 154.827 14.3516V8.12597H155.903C156.567 8.12597 156.91 8.28613 156.956 9.6826L157.071 12.6123C157.162 15.2445 157.918 15.9772 159.2 15.9772C160.504 15.9772 160.848 15.0843 160.848 13.8255V13.2988H160.367V13.6878C160.367 14.5351 160.253 15.1302 159.932 15.1302C159.634 15.1302 159.611 14.9014 159.543 13.8483L159.406 11.8343C159.222 9.13312 158.879 8.19465 156.887 7.82814C158.787 7.32486 159.955 5.92839 159.955 3.93687C159.955 1.35028 157.918 0.114271 155.972 0.114271H148.167V0.52637L148.601 0.617844C149.425 0.801099 149.448 1.236 149.448 3.09016V12.2002C149.448 14.2376 148.876 15.2217 147.571 15.2217C146.404 15.2217 145.763 14.6494 145.763 12.429V1.60221C145.763 0.961262 145.969 0.778312 146.472 0.663741L147.09 0.52637V0.114271H142.307V0.52637L142.81 0.663741C143.268 0.801108 143.428 0.984354 143.428 1.62501V12.2689C143.428 14.6722 144.824 16 146.953 16C149.082 16 150.135 14.6722 150.135 12.2002V2.26596C150.135 1.02996 150.387 0.595048 151.394 0.595048C152.195 0.595048 152.539 0.869783 152.539 1.62501V14.3516C152.539 14.9928 152.333 15.2217 151.875 15.3362L151.371 15.4736V15.8854ZM182.089 1.62501C182.089 0.984354 182.295 0.778313 182.753 0.686537L183.371 0.549166V0.114271H178.61V0.52637L179.114 0.663741C179.572 0.801108 179.777 0.984354 179.777 1.62501V14.4437C179.777 15.0615 179.526 15.4049 178.816 15.4049C177.992 15.4049 177.877 15.1302 177.58 13.7799L174.65 0.0686783H173.734L170.942 13.3447C170.621 14.8324 170.461 15.1761 169.843 15.359L169.454 15.4736V15.8854H172.727V15.4736L172.247 15.3818C171.56 15.2445 171.377 14.8786 171.72 13.1387L173.368 4.64649L175.176 13.6423C175.451 14.947 175.429 15.1989 174.444 15.3818L173.963 15.4736V15.8854H186.095V10.6667H185.66C185.431 13.07 184.951 15.3362 183.005 15.3362H182.089V1.62501ZM174.948 11.6279V11.0101H171.857L171.766 11.6279H174.948ZM162.175 1.89975V12.8412C162.175 14.4893 162.175 15.2676 161.351 15.4049L160.939 15.4736V15.8854H164.304V15.4736C162.839 15.2676 162.839 14.764 162.839 12.9785V2.58657L162.29 2.083L167.898 15.8854H168.859V3.15884C168.859 1.28189 168.859 0.869783 169.775 0.617844L170.095 0.52637V0.114271H166.638V0.52637L167.028 0.617844C168.195 0.823895 168.195 1.2819 168.195 3.02148V10.987L168.424 10.9183L164.167 0.114271H160.893V0.52637L161.214 0.617844C161.58 0.732416 161.786 1.14453 162.175 1.89975ZM154.827 0.663741H155.743C156.658 0.663741 157.505 1.2588 157.505 4.23469C157.505 7.27897 156.865 7.5765 155.583 7.5765H154.827V0.663741ZM139.583 7.85123C139.583 14.4662 139.033 15.4049 137.843 15.4049C136.653 15.4049 136.126 14.4662 136.126 7.89682C136.126 1.53353 136.699 0.617844 137.843 0.617844C139.033 0.617844 139.583 1.53353 139.583 7.85123ZM142.078 7.9886C142.078 3.61654 140.682 0 137.843 0C134.982 0 133.631 3.61654 133.631 7.9886C133.631 12.3835 135.028 16 137.843 16C140.75 16 142.078 12.3835 142.078 7.9886ZM132.281 1.62501C132.281 0.984354 132.441 0.778312 132.899 0.663741L133.402 0.52637V0.114271H128.664V0.52637L129.236 0.663741C129.694 0.778312 129.946 0.938466 129.946 1.60221V12.6123C129.946 14.1458 129.809 15.3818 128.664 15.3818C127.932 15.3818 127.382 14.8096 127.406 14.3978C127.474 13.6878 128.664 13.734 128.756 12.5892C128.824 11.7653 128.298 11.4219 127.817 11.3535C127.108 11.2617 126.238 11.8568 126.215 13.0472C126.192 14.5807 127.199 15.9772 128.916 15.9772C130.816 15.9772 132.281 14.6953 132.281 12.2458V1.62501ZM55.8284 1.62501C55.8284 0.984354 56.0345 0.778313 56.4922 0.686537L57.1103 0.549166V0.114271H52.3493V0.52637L52.8528 0.663741C53.3105 0.801108 53.5166 0.984354 53.5166 1.62501V14.4437C53.5166 15.0615 53.2646 15.4049 52.555 15.4049C51.7311 15.4049 51.5937 15.1302 51.2962 13.7799L48.3662 0.0686783H47.4508L44.6582 13.3447C44.3379 14.8324 44.1774 15.1761 43.5595 15.359L43.1702 15.4736V15.8854H46.4437V15.4736L45.9629 15.3818C45.2763 15.2445 45.0931 14.8786 45.4365 13.1387L47.0846 4.60061L48.8929 13.6423C49.1445 14.947 49.1445 15.1989 48.1605 15.3818L47.6797 15.4736V15.8854H59.8343V10.6667H59.3994C59.1705 13.07 58.6898 15.3362 56.7441 15.3362H55.8284V1.62501ZM119.554 0.663741H120.058C121.477 0.663741 121.958 2.9297 122.118 5.33333H122.552V0.114271H114.243V5.33333H114.678C114.839 2.9297 115.32 0.663741 116.739 0.663741H117.242V14.3516C117.242 14.9928 117.036 15.2217 116.578 15.3362L115.983 15.4736V15.8854H120.928V15.4736L120.218 15.3135C119.783 15.1989 119.554 15.0615 119.554 14.3516V0.663741ZM109.093 7.96551L109.803 7.9886C110.833 8.0114 111.13 8.4007 111.337 10.8958H111.771V4.53222H111.337C111.085 6.52374 110.81 7.37044 109.826 7.39353L109.093 7.41635V0.663755H110.673C112.435 0.663755 112.824 2.88413 113.076 5.33334H113.511V0.114286H105.614V0.526384L106.118 0.663755C106.644 0.801122 106.782 1.12174 106.782 1.64812V14.3516C106.782 14.9928 106.576 15.2217 106.118 15.3363L105.614 15.4736V15.8854H113.74V10.6667H113.305C113.03 13.0472 112.733 15.3363 110.673 15.3363H109.093V7.96551ZM100.464 7.96551L101.173 7.9886C102.203 8.0114 102.501 8.4007 102.707 10.8958H103.142V4.53222H102.707C102.455 6.52374 102.181 7.37044 101.197 7.39353L100.464 7.41635V0.663755H102.043C103.806 0.663755 104.195 2.92972 104.447 5.33334H104.881V0.114286H96.7558V0.526384L97.4882 0.663755C98.0146 0.801122 98.152 1.12174 98.152 1.64812V14.3516C98.152 14.9928 97.9459 15.2217 97.4882 15.3363L96.9846 15.4736V15.8854H105.11V10.6667H104.676C104.401 13.0472 104.103 15.3363 102.043 15.3363H100.464V7.96551ZM91.056 0.663741H91.7428C92.6582 0.663741 93.5052 1.2588 93.5052 4.23469C93.5052 7.23308 92.8645 7.5765 91.5826 7.5765H91.056V0.663741ZM87.5996 15.8854H92.2236V15.4736L91.7197 15.359C91.262 15.2445 91.056 14.9928 91.056 14.3516V8.12597H91.903C92.5667 8.12597 92.9101 8.4007 92.956 9.6826L93.0703 12.6123C93.1621 15.2445 93.9173 15.9772 95.1992 15.9772C96.5039 15.9772 96.847 15.0843 96.847 13.8255V13.2988H96.3665V13.6878C96.3665 14.5351 96.2522 15.1302 95.9316 15.1302C95.6341 15.1302 95.611 14.9014 95.5426 13.8483L95.4049 11.8343C95.222 9.06444 94.8558 8.19465 92.8873 7.82814C94.7871 7.32486 95.9544 5.92839 95.9544 3.93687C95.9544 1.35028 93.9173 0.114271 91.9716 0.114271H87.5996V0.52637L88.1032 0.663741C88.5612 0.801108 88.7669 0.984354 88.7669 1.62501V14.3516C88.7669 14.9928 88.5612 15.2217 88.1032 15.3362L87.5996 15.4736V15.8854ZM84.0976 0.663741H84.6012C86.0202 0.663741 86.5009 2.9297 86.6614 5.33333H87.096V0.114271H78.7871V5.33333H79.222C79.3821 2.9297 79.8629 0.663741 81.2822 0.663741H81.7858V14.3516C81.7858 14.9928 81.5794 15.2217 81.122 15.3362L80.5267 15.4736V15.8854H85.3564V15.4736L84.7614 15.3362C84.1663 15.1989 84.0976 14.7412 84.0976 14.3516V0.663741ZM78.8099 11.7881C78.8099 7.09571 73.6598 5.85971 73.6598 2.44922C73.6598 1.71679 73.9345 0.617844 75.0788 0.617844C76.7269 0.617844 77.345 2.74674 77.6198 5.33333H78.0547V0.114271H77.7799C77.6653 0.617851 77.4593 0.846994 77.1621 0.846994C76.6354 0.846994 76.3607 0.0227964 75.1019 0.0227964C73.1562 0.0227964 71.8284 1.6481 71.8284 3.7767C71.8284 7.64518 76.9788 9.2702 76.9788 12.8412C76.9788 14.4662 76.2233 15.3818 75.1933 15.3818C73.6598 15.3818 72.6526 13.5739 72.3779 10.6667H71.943V15.8854H72.2177C72.4466 15.1302 72.7441 15.0615 72.9958 15.0615C73.4309 15.0615 73.8886 15.9772 75.2161 15.9772C77.2535 15.9772 78.8099 14.2148 78.8099 11.7881ZM63.817 1.62501C63.817 0.984354 64.0231 0.778313 64.4808 0.686537L65.0989 0.549166V0.114271H60.3379V0.52637L60.8414 0.663741C61.2991 0.801108 61.5052 0.984354 61.5052 1.62501V14.3516C61.5052 14.9928 61.2991 15.2217 60.8414 15.3362L60.3379 15.4736V15.8854H67.8229V10.6667H67.3877C67.1591 13.07 66.6784 15.3362 64.7327 15.3362H63.817V1.62501ZM48.6637 11.6279V11.0101H45.5739L45.4821 11.6279H48.6637ZM35.4336 15.9313H36.3721L38.5007 4.66959H38.1803L40.515 15.9313H41.3392L44.1318 2.65527C44.4293 1.2588 44.5895 0.778304 45.139 0.640641L45.5739 0.52637V0.114271H42.3463V0.52637L42.8271 0.617844C43.5137 0.755211 43.6738 1.16731 43.3535 2.86101L41.5452 11.7653H41.82L39.9886 2.38052C39.8053 1.48764 39.6911 0.755211 40.4466 0.617844L40.9499 0.52637V0.114271H36.5322V0.52637L36.8298 0.595048C37.2877 0.709323 37.3564 0.984361 37.5394 1.85415L38.249 5.26464L38.1116 3.20443L36.5322 11.5365H36.7383L34.8841 2.38052C34.6781 1.44205 34.6094 0.732415 35.3418 0.595048L35.6855 0.52637V0.114271H31.1761V0.52637L31.611 0.640641C32.0228 0.755212 32.2519 0.961265 32.5267 2.22007L35.4336 15.9313ZM23.2103 7.96551L23.9199 7.9886C24.9499 8.0114 25.2474 8.4007 25.4535 10.8958H25.8884V4.53222H25.4535C25.2018 6.52374 24.9271 7.37044 23.9427 7.39353L23.2103 7.41635V0.663755H24.7897C26.5521 0.663755 26.9414 2.92972 27.193 5.33334H27.6279V0.114286H19.7311V0.526384L20.2347 0.663755C20.7611 0.801122 20.8984 1.12174 20.8984 1.64812V14.3516C20.8984 14.9928 20.6924 15.2217 20.2347 15.3363L19.7311 15.4736V15.8854H27.8571V10.6667H27.4219C27.1474 13.0472 26.8499 15.3363 24.7897 15.3363H23.2103V7.96551ZM8.81251 15.8854H13.5049V15.4736L12.9785 15.359C12.5664 15.2676 12.2917 14.9928 12.2917 14.3516V8.10317H15.7481V14.3516C15.7481 14.9928 15.4736 15.2676 15.0615 15.359L14.5351 15.4736V15.8854H19.2275V15.4736L18.724 15.3362C18.2663 15.2217 18.0599 14.9697 18.0599 14.3291V1.62501C18.0599 0.984354 18.2663 0.778312 18.724 0.663741L19.2275 0.52637V0.114271H14.5351V0.52637L15.0615 0.663741C15.4505 0.778312 15.7481 0.938466 15.7481 1.60221V7.48501H12.2917V1.60221C12.2917 0.961262 12.5436 0.778312 12.9785 0.663741L13.5049 0.52637V0.114271H8.81251V0.52637L9.31609 0.663741C9.77408 0.801108 9.97983 0.984354 9.97983 1.62501V14.3516C9.97983 14.9928 9.77408 15.2217 9.31609 15.3362L8.81251 15.4736V15.8854ZM5.31024 0.663741H5.81412C7.23308 0.663741 7.71387 2.9297 7.87403 5.33333H8.30893V0.114271H0V5.33333H0.434897C0.59506 2.9297 1.07584 0.663741 2.49481 0.663741H2.99839V14.3516C2.99839 14.9928 2.79264 15.2217 2.33465 15.3362L1.73959 15.4736V15.8854H6.68391V15.4736L5.97428 15.3135C5.53938 15.1989 5.31024 15.0615 5.31024 14.3516V0.663741Z" fill="#000E18" fill-opacity="0.59"/>
</g>
<defs>
<clipPath id="clip0_162_72413">
<rect width="188.819" height="16" fill="white"/>
</clipPath>
</defs>
</svg>
