<svg width="91" height="18" viewBox="0 0 91 18" fill="none" xmlns="http://www.w3.org/2000/svg">
<path d="M76.4467 2.79694V15.2478H82.5819C84.2961 15.2478 85.2886 14.9771 86.0104 14.3456C86.9126 13.5336 87.3638 12.09 87.3638 9.02238C87.3638 5.95477 86.9126 4.51119 86.0104 3.69917C85.2886 3.06761 84.2961 2.79694 82.5819 2.79694H76.4467ZM84.8375 9.02238C84.8375 11.7291 84.657 12.3607 84.1157 12.7215C83.7548 12.9922 83.3037 13.0824 82.4014 13.0824H78.9729V4.87208H82.4014C83.3037 4.87208 83.7548 4.87208 84.1157 5.23298C84.657 5.6841 84.8375 6.31566 84.8375 9.02238ZM90.5216 18H72.5216V0H90.5216V18ZM57.8158 4.87208V2.79694H68.4622V6.76678H66.2059V4.87208H61.8752V7.84947H65.3037V9.83439H61.8752V13.1727H66.2969V11.0073H68.5517V15.2478H57.8166V13.1727H59.5301V4.87208H57.8158ZM48.1619 11.9998C48.1619 13.3531 48.2514 14.3456 48.4318 15.1576H50.8686C50.7777 14.526 50.6882 13.3531 50.6882 11.8193C50.5972 10.0148 50.0559 9.74417 48.7927 9.47349C50.2363 9.20282 50.8686 8.57126 50.8686 6.31566C50.8686 4.51119 50.5972 3.7894 50.0559 3.33828C49.695 2.97738 49.0641 2.79694 48.0709 2.79694H40.4921V15.2478H43.0184V10.3757H46.5379C47.2597 10.3757 47.5296 10.466 47.801 10.6464C48.0724 10.8269 48.1619 11.0975 48.1619 11.9998ZM43.0184 8.39081V4.96231H47.0792C47.6205 4.96231 47.801 5.05253 47.8905 5.14275C48.0709 5.3232 48.2514 5.59387 48.2514 6.67656C48.2514 7.75924 48.0709 8.12014 47.8905 8.30059C47.801 8.39081 47.6205 8.48103 47.0792 8.48103L43.0184 8.39081ZM54.4776 18H36.4328V0H54.4321V18H54.4776ZM31.7412 13.1727V15.2478H23.1692V13.1727H26.2368V4.87208H23.1692V2.79694H31.7404V4.87208H28.6728V13.1727H31.7412ZM17.2599 2.79694H14.9141L13.1998 12.6313L11.2149 3.51873C11.1247 2.88716 10.854 2.79694 10.3127 2.79694H9.04953C8.50819 2.79694 8.23751 2.97738 8.14729 3.51873L6.16237 12.6313L4.44812 2.79694H1.92185L4.35789 14.6162C4.44812 15.1576 4.62856 15.2478 5.26013 15.2478H6.97438C7.51572 15.2478 7.69617 15.1576 7.87662 14.6162L9.77132 6.04499L11.666 14.6162C11.7562 15.1576 11.9367 15.2478 12.5683 15.2478H14.1923C14.7336 15.2478 15.0043 15.1576 15.0945 14.6162L17.2599 2.79694ZM18.523 18H0.478271V0H18.4783V18H18.523Z" fill="#011E32" fill-opacity="0.24"/>
</svg>
