<svg width="91" height="18" viewBox="0 0 91 18" fill="none" xmlns="http://www.w3.org/2000/svg">
<path d="M75.9838 2.79694V15.2478H82.119C83.8333 15.2478 84.8257 14.9771 85.5475 14.3456C86.4497 13.5336 86.9009 12.09 86.9009 9.02238C86.9009 5.95477 86.4497 4.51119 85.5475 3.69917C84.8257 3.06761 83.8333 2.79694 82.119 2.79694H75.9838ZM84.3746 9.02238C84.3746 11.7291 84.1941 12.3607 83.6528 12.7215C83.2919 12.9922 82.8408 13.0824 81.9386 13.0824H78.51V4.87208H81.9386C82.8408 4.87208 83.2919 4.87208 83.6528 5.23298C84.1941 5.6841 84.3746 6.31566 84.3746 9.02238ZM90.0587 18H72.0587V0H90.0587V18ZM57.3529 4.87208V2.79694H67.9993V6.76678H65.743V4.87208H61.4123V7.84947H64.8408V9.83439H61.4123V13.1727H65.834V11.0073H68.0888V15.2478H57.3537V13.1727H59.0672V4.87208H57.3529ZM47.699 11.9998C47.699 13.3531 47.7885 14.3456 47.9689 15.1576H50.4057C50.3148 14.526 50.2253 13.3531 50.2253 11.8193C50.1343 10.0148 49.593 9.74417 48.3298 9.47349C49.7734 9.20282 50.4057 8.57126 50.4057 6.31566C50.4057 4.51119 50.1343 3.7894 49.593 3.33828C49.2321 2.97738 48.6012 2.79694 47.6081 2.79694H40.0293V15.2478H42.5555V10.3757H46.075C46.7968 10.3757 47.0667 10.466 47.3381 10.6464C47.6095 10.8269 47.699 11.0975 47.699 11.9998ZM42.5555 8.39081V4.96231H46.6163C47.1577 4.96231 47.3381 5.05253 47.4276 5.14275C47.6081 5.3232 47.7885 5.59387 47.7885 6.67656C47.7885 7.75924 47.6081 8.12014 47.4276 8.30059C47.3381 8.39081 47.1577 8.48103 46.6163 8.48103L42.5555 8.39081ZM54.0147 18H35.9699V0H53.9692V18H54.0147ZM31.2783 13.1727V15.2478H22.7063V13.1727H25.7739V4.87208H22.7063V2.79694H31.2776V4.87208H28.2099V13.1727H31.2783ZM16.797 2.79694H14.4512L12.7369 12.6313L10.752 3.51873C10.6618 2.88716 10.3911 2.79694 9.84977 2.79694H8.58664C8.0453 2.79694 7.77462 2.97738 7.6844 3.51873L5.69948 12.6313L3.98523 2.79694H1.45896L3.895 14.6162C3.98523 15.1576 4.16567 15.2478 4.79724 15.2478H6.51149C7.05283 15.2478 7.23328 15.1576 7.41373 14.6162L9.30843 6.04499L11.2031 14.6162C11.2934 15.1576 11.4738 15.2478 12.1054 15.2478H13.7294C14.2707 15.2478 14.5414 15.1576 14.6316 14.6162L16.797 2.79694ZM18.0601 18H0.0153809V0H18.0154V18H18.0601Z" fill="#000E18" fill-opacity="0.59"/>
</svg>
